<?xml version="1.0" encoding="utf-8"?>
<!-- Generator: Adobe Illustrator 23.0.1, SVG Export Plug-In . SVG Version: 6.00 Build 0)  -->
<svg version="1.1" id="Layer_1" xmlns="http://www.w3.org/2000/svg" xmlns:xlink="http://www.w3.org/1999/xlink" x="0px" y="0px"
	 viewBox="0 0 389.9 377.7" style="enable-background:new 0 0 389.9 377.7;" xml:space="preserve">
<style type="text/css">
	.st0{fill:#FCF7F0;}
	.st1{fill:none;stroke:#FF595E;stroke-width:121.692;stroke-miterlimit:10;}
	.st2{fill:none;stroke:#FFCA3A;stroke-width:107.7338;stroke-miterlimit:10;}
	.st3{fill:none;stroke:#8AC926;stroke-width:95.3483;stroke-miterlimit:10;}
	.st4{fill:none;stroke:#1982C4;stroke-width:83.5526;stroke-miterlimit:10;}
	.st5{fill:none;stroke:#6A4C93;stroke-width:74.1161;stroke-miterlimit:10;}
	.st6{fill:#FF6671;}
	.st7{fill:#FF6E72;}
	.st8{fill:#005EB7;}
	.st9{fill:#FEFEFE;}
	.st10{fill:#1982C4;stroke:#1982C4;stroke-width:8;stroke-miterlimit:10;}
</style>
<rect x="1223.1" y="364.6" class="st0" width="1920" height="1080"/>
<g>
	<path class="st1" d="M1975.2,1744.6c-195.5-430.4-5.1-937.9,425.3-1133.4s937.9-5.1,1133.4,425.3"/>
	<path class="st2" d="M2066.7,1705.3c-173.1-381-4.6-830.3,376.5-1003.4s830.3-4.6,1003.4,376.5"/>
	<path class="st3" d="M2145,1670.5c-153.2-337.2-4-734.8,333.2-888s734.8-4,888,333.2"/>
	<path class="st4" d="M2220.6,1636.1c-134.3-295.5-3.5-643.9,292-778.2s643.9-3.5,778.2,292"/>
	<path class="st5" d="M2281,1608.7c-119.1-262.1-3.1-571.2,259-690.3s571.2-3.1,690.3,259"/>
</g>
<g>
	<path class="st1" d="M-1792.8,1300.8c-195.5-430.4-5.1-937.9,425.3-1133.4s937.9-5.1,1133.4,425.3"/>
	<path class="st2" d="M-1701.3,1261.5c-173.1-381-4.6-830.3,376.5-1003.4s830.3-4.6,1003.4,376.5"/>
	<path class="st3" d="M-1623,1226.6c-153.2-337.2-4-734.8,333.2-888s734.8-4,888,333.2"/>
	<path class="st4" d="M-1547.4,1192.3c-134.3-295.5-3.5-643.9,292-778.2s643.9-3.5,778.2,292"/>
	<path class="st5" d="M-1487,1164.9c-119.1-262.1-3.1-571.2,259-690.3s571.2-3.1,690.3,259"/>
</g>
<g>
	<path class="st6" d="M1540.1,520.4c-9.4-9.1-14.8-22.1-22.8-32.5c-9.5-12.3-19.6-26.3-32.1-35.6c-11-8.2-25.6-13.2-38.6-17.1
		c-7.9-2.4-15.8-3.1-24-1.3c-20.7,4.4-36.8,20-48.2,36.9c-12.2,18-23.2,40.3-29.2,61.3c-7.5,26.2-4.4,49.5-0.2,75.9
		c2.6,16.3,8.2,31.6,12.5,47.4c5.3,19.6,9.9,39.3,13.6,59.2c1.9,10.2,4,20.5,4.4,30.9c0.2,3.7-0.8,13.8,2.3,17
		c4.5,4.6,16.7-1.4,21.4-2.4c13.8-3,28.3-4.1,42.3-4.8c29.3-1.4,58.6-4.4,87.8-7.2c22.9-2.2,45.7-7.4,68-13.3
		c25.1-6.6,49.7-15.4,69.3-33c16.5-14.7,26.3-36.7,26-59.2c-0.2-11.5-3.1-23.3-8.3-33.6c-5.3-10.6-10.9-22.4-18-31.9
		c-9.7-12.9-23.4-26.5-37.3-34.9c-15.5-9.3-33.5-17.9-51.8-19c-15.8-1-33.2-3.2-48.3,3.4"/>
	<g>
		<g>
			<g>
				<path class="st7" d="M1504.7,500.6c-0.5-0.8-0.8-1.4-1.3-2.2c0.6,0.7,1.2,1.3,1.9,2.4c0.7,1,1.5,2.1,2.3,3.5
					c-0.9-1.7-1.8-3.2-2.8-4.7l-0.7-1.1c-0.1-0.2-0.3-0.4-0.4-0.6l-0.5-0.7c-0.6-0.9-1.3-1.8-1.9-2.8c-2.6-3.7-5.2-7.3-7.9-10.8
					c-5.4-6.9-11.2-13.2-17.2-17.6c-0.7-0.6-1.5-1-2.2-1.5c-0.8-0.5-1.5-1-2.3-1.4c-1.6-0.9-3.3-1.7-5-2.6c-3.5-1.6-7.2-3-10.9-4.2
					c-3.7-1.2-7.5-2.2-11.3-3.1c-0.9-0.2-1.9-0.5-2.8-0.7c-0.5-0.1-0.8-0.2-1.1-0.2c-0.3-0.1-0.7-0.1-1-0.2
					c-1.3-0.2-2.5-0.3-3.6-0.4c-3.2-0.5-5.9-0.2-8,0.4c-0.5,0.1-1,0.3-1.4,0.5c-0.5,0.2-0.9,0.4-1.3,0.6c-0.7,0.4-1.1,0.6-1.2,0.9
					c-0.2,0.5,1,0.6,2.9,0.4c1.7,0,4-0.2,6.7,0.1c1.2,0.2,2.7,0.5,3.6,0.8c2.8,1.1,5.7,2.3,8.8,3.6c3.5,1.4,7,2.9,10.4,4.5
					c3.4,1.6,6.6,3.3,9.4,5.2c0.7,0.4,1.4,0.9,2,1.4c0.6,0.5,1.3,0.9,1.8,1.4c0.3,0.2,0.6,0.4,0.9,0.7l0.9,0.8
					c0.6,0.5,1.3,1.2,1.9,1.7c-0.5-0.5-1-1-1.5-1.5c-0.5-0.5-1-0.9-1.5-1.4c-0.9-0.8-1.8-1.6-2.9-2.4c1.6,1.1,2.9,2.1,4.5,3.5
					c1.5,1.4,3.2,2.9,4.9,4.6c-0.3-0.5-0.6-1-0.9-1.5c5.2,5.6,11.5,13.8,18.3,22.4c1.6,2,3.1,3.9,4.6,5.7c1.2,1.5,2.4,3.2,3.6,4.9
					c2.5,3.5,5.1,7.2,7.6,10.3c2.5,3.1,4.5,5.2,5.8,6.1c1.3,0.9,1.7,0.7,1.3-0.6c-0.4-1.3-1.5-3.6-3.1-6.7c-1.6-3.1-3.5-7-5.7-11.2
					C1507.1,504.9,1505.9,502.6,1504.7,500.6z"/>
				<path class="st7" d="M1486.5,470.4c3.5,4,6.8,8.3,10,12.8c1.6,2.2,3.2,4.6,4.8,6.9c1.6,2.3,3.2,4.7,4.8,7
					c0.3,0.6,0.6,1.1,0.9,1.7l0.7-1.3l-0.2-0.1c-0.4-0.4-0.8-0.8-1.2-1.3c-0.5-0.5-1-1.1-1.5-1.7c-1-1.2-2.1-2.4-3.2-3.7
					c-2.2-2.5-4.5-5.2-7-8.1c-4.9-5.6-10.1-11.2-15.3-15.4c-1.2-1-2.5-1.9-3.8-2.7c-0.5-0.3-0.9-0.5-1.2-0.7
					c-0.4-0.2-0.8-0.4-1.1-0.5c-0.6-0.3-1.1-0.4-1.4-0.4c-0.6,0-0.1,0.6,1,1.7c1.2,1,3,2.6,5.2,4.5c1.7,1.6,3.5,3.2,5.2,5.1
					c3,3.4,6.5,7.6,10.2,12.3c3.7,4.8,7.4,9.7,11.1,14.4c3,4.1,6.1,9,9.3,13.6c1.6,2.3,3.2,4.4,4.8,6.3c1.6,1.9,3.1,3.6,4.5,4.8
					c2.5,2.3,1.2-0.4,1.2-1.3c0.7,0.1-0.5-1.9-2.4-5.1c-0.9-1.6-2-3.4-3.3-5.6c-1.2-2.1-2.5-4.3-3.9-6.6c-1.4-2.3-2.7-4.3-3.9-6.1
					c-1.2-1.7-2.4-3.3-3.4-4.4c-0.5-0.5-1.1-1.2-1.6-1.8c-0.5-0.6-1-1.1-1.4-1.4c-0.8-0.8-1.4-1.2-1.7-1.2c-1-1.4-2.1-2.9-3.1-4.4
					c0.9,1,1.9,2.1,2.8,3.1c-2.4-1.9-8.3-9.4-13-14c-2.2-2.4-4.5-4.7-6.7-6.8c0.4,0.8,0.8,1.7,1.2,2.6c0.4,0.9,0.7,1.7,1.1,2.6
					c0.6,0.6,1.2,1.1,1.8,1.7c0.6,0.6,1.2,1.2,1.8,1.8c-0.2-0.3-0.6-1-0.5-1c3.4,3.4,6.7,7.1,10,11c1.7,2,3.4,4,5.2,6.2
					c0.8,1,1.7,2.1,2.6,3.1c0.7,0.9,1.5,1.9,2.2,2.9c2.6,3.4,5.2,7.4,8.2,11.7c1.3,1.7,2,2.4,2.2,2.2c0.1-0.3-0.4-1.5-1.5-3.5
					l-3.1-5.9c0.4,0.9,0.9,1.8,1.3,2.6c-1.9-3.3-3.7-6.5-5.5-9.3c-0.5-0.7-0.9-1.4-1.4-2.1l-0.7-1l-0.8-1.2l-3.4-4.7
					c-4.5-6.2-8.9-12.1-13.4-17.3c-1.4-1.7-3.3-3.4-4.2-4.1C1484.5,468,1485,468.8,1486.5,470.4z"/>
				<g>
					<path class="st7" d="M1517.2,510.6c1.2,2.3,2.4,4.5,4.7,7.7c0.6,0.7,1,1.1,1.1,1.3c-0.8-1.3-1.8-3-2.7-4.6
						C1518.4,511.7,1517.4,510.3,1517.2,510.6z"/>
					<path class="st7" d="M1523,519.6c0.4,0.6,0.7,1.1,0.9,1.4c0.2,0.3,0.4,0.5,0.4,0.5c-0.3-0.5-0.5-0.9-0.8-1.4
						c-0.3-0.3-0.3-0.4-0.3-0.4S1523.2,519.8,1523,519.6z"/>
					<path class="st7" d="M1527.4,732c21.9-1.8,44.2-6.8,66.6-12.6c11-2.8,21.6-6.1,31.4-10.2c9.9-4.1,19-9.2,26.9-15.5
						c1.1-0.8,1.9-1.7,1.8-1.8c0-0.1-0.9,0.5-1.8,1.3c-7.9,6.3-16.9,11.3-26.7,15.5c-9.8,4.1-20.3,7.4-31.3,10.2
						c-22.3,5.8-44.5,10.7-66.4,12.6c-1.5,0.1-2.9,0.4-3,0.5C1524.8,732.1,1526,732.1,1527.4,732z"/>
					<path class="st7" d="M1614,538.4c1,0.4,1,0.3,0.1-0.3c-0.8-0.5-2.4-1.3-3.4-1.7c-0.9-0.3-0.9-0.2-0.1,0.3
						C1611.6,537.3,1613.1,538.1,1614,538.4z"/>
					<path class="st7" d="M1627.6,534.6c1.5,0.8,2.9,1.6,4.4,2.4c1.5,0.9,2.9,1.7,4.3,2.6c2.8,1.7,5.4,3.5,7.8,5.2
						c0.9,0.7,1.9,1.4,2.5,2.1c-0.2-0.4,1,0.3,2.9,1.9c4.8,3.9,9.3,8.1,13.6,12.6c2.2,2.3,4.3,4.6,6.3,7c1,1.2,2,2.4,3,3.7
						c1,1.3,2,2.6,3,3.9c3.8,5.3,7.1,10.9,10.1,16.4c1.5,2.8,3,5.5,4.4,8.2l2.1,4.1l1.1,2.2c0.4,0.8,0.7,1.6,1.1,2.3
						c2.9,6.3,5,12.9,6.3,19.7c0.7,3.4,1.1,6.9,1.4,10.4c0.1,1.7,0.2,3.5,0.2,5.3l0,2.6c0,0.9-0.1,1.8-0.1,2.6
						c-0.4,7-1.6,14-3.6,20.7c-2,6.7-4.9,13.2-8.4,19.2c-0.1,0.4-0.3,1.1-0.8,2.3c-1.7,3.5-6,10.2-12,16c-1.5,1.4-3.1,2.8-4.6,4.1
						c-9.2,7.8-19.5,14-30.1,18.9c-10.6,4.9-21.4,8.6-32.2,11.6c-4.3,1.5-9.4,3.1-14.8,4.5c-18.2,5.3-36.9,10.2-56.7,13.2
						c1.3,0,2,0,2.1,0.2c-0.3,0.5-4.9,1.4-10.3,1.9c-2.6,0.3-5.2,0.5-7.8,0.8c3.8-0.3,7.4-0.6,11.4-0.9c3.9-0.4,7.9-0.8,11.7-1.3
						c1.1-0.2,2.2-0.3,3.1-0.4c8.5-1.3,17-3,25.4-4.9c9.3-2.1,18.3-4.5,27.2-6.9c9-2.5,18.1-5.3,27.1-8.8c4.5-1.8,8.9-3.6,13.3-5.8
						c2.2-1,4.4-2.2,6.5-3.3c1.1-0.6,2.1-1.2,3.2-1.8c1.1-0.6,2.1-1.2,3.2-1.9c4.2-2.5,8.3-5.4,12.2-8.3c1.9-1.6,3.9-3.1,5.7-4.7
						c0.9-0.8,1.9-1.6,2.8-2.5l2.8-2.7c14.4-14.8,23.2-34.1,25.3-54c1.1-9.9,0.3-20.2-2-29.7c-1.2-4.8-2.7-9.4-4.6-14
						c-1-2.3-2-4.5-3.2-6.6l-3-5.7c-0.6-1-1.4-2.6-1.7-3.6c-0.2-0.7,0-0.6,0.6,0.5c1.3,2.4,2.7,4.7,4,7.1l0.5,0.9l0.5,0.9
						c0.4,0.7,0.7,1.3,1.1,2c0.7,1.4,1.4,2.7,2,4.1c2.5,5.5,4.5,11.2,5.9,17.1c1.4,5.9,2.2,11.9,2.3,18.1c0.2,6.1-0.3,12.3-1.4,18.4
						c-2.2,12.2-6.9,24.3-14.4,35.4c-1,1.4-1.9,2.8-2.9,4.1c-1.1,1.3-2.1,2.7-3.2,4c-1.2,1.3-2.3,2.6-3.5,3.9
						c-0.6,0.6-1.2,1.2-1.9,1.9l-0.9,0.9l-0.9,0.9c-4.9,4.6-10.3,8.9-16.2,12.8c-13.9,9.3-28.9,15.6-43.6,20.6
						c-7.4,2.5-14.7,4.6-21.8,6.6c-7.2,2-14.4,4-21.8,5.8c-7.4,1.8-14.9,3.4-22.6,4.8c-3.8,0.7-7.7,1.3-11.6,1.9
						c-3.8,0.6-8,1-11.5,1.5c-14.6,1.7-29.4,3.4-44.5,5c-7.1,0.6-14.2,1.2-21.2,1.7c-3.5,0.2-7.1,0.5-10.6,0.7
						c-3.5,0.2-7,0.4-10.4,0.6c-6.6,0.4-13,0.9-19.2,1.6c-3.1,0.4-6.1,0.8-9.1,1.3c-1.5,0.2-3,0.5-4.4,0.8l-2.2,0.4l-2,0.4
						c-0.2,0.1,0.1,0-0.9,0.3l-2.9,1c-2.2,0.8-4.9,1.6-8.2,2.4c-1.7,0.4-3.5,0.7-5.8,1c-2.3,0.2-5,0.4-8.6-0.2
						c-0.4-0.1-0.9-0.1-1.4-0.2c-0.5-0.1-1-0.2-1.5-0.3c-0.5-0.1-1.1-0.3-1.6-0.4c-0.5-0.2-1-0.3-1.6-0.6c-0.6-0.2-1.2-0.5-1.7-0.7
						c-0.6-0.2-1.2-0.6-1.8-0.9c-1.2-0.6-2.4-1.4-3.6-2.3c-1.2-0.9-2.3-1.9-3.3-3c-1-1.1-2-2.4-2.9-3.6c-0.6-1-1.2-2-1.8-3.1
						c-0.1-0.2-0.3-0.6-0.4-0.8l-0.3-0.6l-0.5-1.3l-0.5-1.3l-0.3-1c-0.2-0.7-0.4-1.4-0.6-2c-0.3-1.1-0.5-2.4-0.7-3.4l-0.2-1.5
						l-0.1-1.3l-0.1-0.7l0-0.6l-0.1-1.2c-0.1-1.5-0.1-3-0.1-4.3l0-3.5l0-1.1l0-0.6c0-0.8-0.1-1.6-0.2-2.5c-0.2-1.7-0.4-3.4-0.6-5.2
						c-0.5-3.6-1.2-7.3-2-11.4c-0.8-4.1-1.6-8.2-2.5-12.4c-1.7-8.1-3.5-16.3-5.5-24.5c-1.2-5.1-2.5-10.1-3.9-15.1
						c-0.7-2.5-1.4-5-2-7.5l-1-3.7l-1-3.7c-2.7-9.5-6.2-19.7-9.2-30.9c-1.5-5.6-2.8-11.6-3.8-17.6c-0.9-5.3-1.7-10.6-2.5-16.2
						c-1.5-11-2.6-22.9-2.3-35.2c0.2-6.2,0.8-12.4,1.7-18.7c0.3-1.6,0.5-3.1,0.8-4.7l1-4.6c0.3-1.5,0.8-3.1,1.1-4.6l0.6-2.3l0.6-2.2
						c3.4-11.5,7.7-22.3,12.6-32.7c5-10.4,10.5-20.4,16.8-30.2l2.4-3.7c0.9-1.3,1.8-2.6,2.7-3.8c0.9-1.3,1.9-2.5,2.8-3.8
						c1-1.2,2-2.5,3-3.7c4.1-4.9,8.6-9.7,13.7-14.2c3.8-3.4,7.9-6.5,12.2-9.3c4.3-2.8,8.9-5.1,13.6-7.1c2.4-0.9,4.7-1.8,7.1-2.5
						c1.2-0.3,2.3-0.7,3.5-1c1.2-0.3,2.3-0.5,3.5-0.8c0.6-0.1,1.1-0.3,1.7-0.4c0.6-0.1,1.2-0.2,1.8-0.3c1.2-0.2,2.4-0.3,3.6-0.4
						c2.4-0.2,4.8-0.3,7-0.3c4.5,0.1,8.6,0.6,12.2,1.4c3.5,0.8,6.5,1.7,9,2.7c0.6,0.2,1.2,0.5,1.7,0.7c0.4,0.2,0.8,0.4,1.2,0.6
						c0.7,0.4,1.4,0.7,2,1.1c1.2,0.7,2,1.3,2.4,1.7c1,1.1-0.5,1.4-3.8,1.1c-0.8-0.1-1.8-0.2-2.8-0.3c-1.3-0.2-2.7-0.4-4.3-0.7
						c-3.2-0.5-7.1-0.9-11.5-1c3.5,0.3,6.9,0.8,10.2,1.6c2.5,0.6,5.2,1.5,7,2.1c2,0.7,4,1.4,6.1,2.1c5.8,2.1,11.3,4.4,16,6.8
						c4.7,2.4,8.7,5,11.7,7.3c1.4,1,2.7,2.1,4,3.2l2,1.7c0.6,0.6,1.2,1.2,1.8,1.8c2.3,2.5,4.9,5.3,7.3,8.4c2.4,3,4.8,6.3,6.9,9.5
						c4.3,6.4,7.8,12.6,9.8,17l-1.9-1.2l1.2,1.9c1,1.5,1.9,3,2.7,4.3c0.4,0.7,0.7,1.3,1.1,1.9c0.4,0.6,0.7,1.2,1,1.8
						c1.2,2.2,1.8,3.9,1.9,4.8l-1.2-0.1c-0.9-0.3-2.1-1.1-3.6-2.3c-1.5-1.2-3.4-2.8-5.5-4.8c-0.2,0.4-1,0.1-2.2-0.9
						c2.2,4.6,2.8,7.1-0.5,4.7c1.6,2.6,0.9,2.4-1.4-0.3c-0.8-0.9-1.7-2.1-2.7-3.3c0,0,0,0,0,0c0.8,1.5,1,1.9,2.1,3.8
						c0.9,1.2,1.6,2.2,2,2.8c0.5,0.6,0.7,1,0.7,1c2.1,3,3.1,4.6,4,6.1c0.9,1.5,1.8,2.9,3.5,5.9c1.4,2.6,2.5,4.8,3.3,6.3
						c0.8,1.5,1.2,2.4,1.2,2.4c1.2,3.4,1.9,5.1,2.1,5.9c0.2,0.8-0.1,0.7-0.8,0.5c-0.3-0.3-0.6-0.6-1-1c1.6,2.4,2.6,3.7,3.2,4.6
						c0.6,0.9,1,1.3,1.5,1.9c1,1.4,1.8,2.4,1.8,2.4c-0.1,0.5-0.1,0.5,0.6,1.4c0.1,0.4,0,0.4,0,0.4c-2.9-2.3-2.8-2.3-3-2.3
						c-0.7-0.5-1.5-1.4-1.5-1.4c-2.8-3.1-3.7-4.3-4.1-4.8c-2-3.7-2.8-5.5-3.3-6.4c-0.4-0.9-0.4-0.9-0.4-0.9
						c-1.2-1.2-1.2-1.2-1.2-1.2c-0.5-1.8-0.5-1.8-0.5-1.8c0.1,1.1,0.1,1.1,0.1,1.1c-1.8-3.4-1.8-3.4-1.8-3.4c2,3.9,2,3.9,2,3.9
						c-2.3-3.8-3.4-5.7-4.2-7.1c-0.8-1.3-1.2-2-2.1-3.3c-1.8-2.9-3.4-5-3.6-5.2c0,0.3,0,0.4,0,0.4c-0.3-0.4-0.6-0.8-0.8-1.2
						c-0.3-0.4-0.6-0.8-0.9-1.2c-0.5-0.7-1-1.4-1.5-2c-0.9-1.2-1.5-2.1-2.2-3c-1.4-1.8-2.7-3.7-5.4-7.2c-0.4-0.7-0.8-1.3-1.1-1.8
						c-0.6-0.6-1.7-1.8-2.8-3.1c-1-1.2-1.9-2.3-2.9-3.4c-0.2-0.2-0.5-0.5-0.7-0.7c0,0,0,0,0,0c-1.1-1.1-1.8-1.8-2.7-2.6
						c-0.5-0.5-0.6-0.5-0.6-0.5c0,0,0,0,0,0c-0.9-0.8-2.1-1.9-3.9-3.3c-0.5-0.4-1-0.8-1.5-1.2c-0.6-0.4-1.2-0.9-1.8-1.3
						c-0.7-0.5-1.4-0.9-2.2-1.5c-0.8-0.5-1.6-1-2.6-1.5c-1.9-1.3-3.8-2.5-5.7-3.6c0.6,0.4,1.2,0.7,1.7,1.1c1,0.7-0.2,0.5,0.4,0.9
						c1.8,1.1,3.5,2.3,5,3.6c0.8,0.6,1.6,1.3,2.4,2c0.8,0.7,1.6,1.4,2.4,2.2c3.2,3,6.3,6.5,9.4,10.3c3.1,3.8,6.2,7.8,9.3,12.1
						l4.8,6.5c0.9,1.2,1.4,2,2.1,2.9c0.6,0.9,1.3,1.9,1.9,2.9c1.9,2.8,3.6,6,3.6,6.7c0,0.6-1.7-1.6-3.7-4.6c-1.4-2-2.9-3.9-4.3-5.5
						c-1.8-2.1-3.6-4.3-5.4-6.5c-3.6-4.3-7.1-8.6-10.7-12.5c-1.8-2-3.6-3.9-5.4-5.7c-1.8-1.8-3.7-3.5-5.5-5
						c-0.9-0.8-1.9-1.5-2.8-2.2l-1.3-0.9l-1.4-0.9c-1.9-1.2-4.1-2.4-6.3-3.5c-4.5-2.2-9.6-4.2-14.9-6.1c-2.6-0.9-5.4-1.8-8.2-2.7
						l-1.8-0.6c-0.5-0.2-1-0.3-1.5-0.4c-1-0.3-2-0.5-3-0.7c-1.9-0.3-3.8-0.5-5.6-0.5c-0.9,0-1.8,0.1-2.7,0.1
						c-0.9,0.1-1.8,0.2-2.8,0.5c-4.1,0.8-8,2.2-11.8,4.1c-8,4.2-15.4,11.1-21.9,19.1c0.4-0.3,0.7-0.7,1.1-1c-1.8,2-3.4,4.2-5,6.3
						c-0.2,0.2-0.3,0.5-0.5,0.7c1.4-1.6,2.7-3.1,4.1-4.6c0.9-1.1,1.8-2.1,2.7-3.2c3.8-4.5,7.9-8.5,12.1-11.6c4.2-3.1,8.6-5.7,13-7.2
						l1.7-0.6c0.5-0.2,1.1-0.3,1.7-0.5c0.6-0.1,1.1-0.3,1.7-0.4l1.7-0.3c0.6-0.1,1.1-0.2,1.6-0.3c0.5-0.1,1-0.1,1.5-0.1
						c1-0.1,1.9-0.1,2.9-0.1c1.9,0.1,3.9,0.4,6,0.9c1,0.2,2.1,0.6,3.2,0.9c1.4,0.5,2.9,1,4.3,1.5c6.4,2.2,11.9,4.5,16.8,7
						c2.4,1.2,4.7,2.5,6.8,3.9c1,0.7,2,1.4,3,2.1c0.9,0.7,1.8,1.4,2.7,2.2c2,1.6,3.2,3.1,2.8,3.1c-0.4,0-2.4-1.6-4.3-3
						c-3-2.2-6.7-4.2-11-6.2c-4.3-1.9-9.1-3.7-14.2-5.4l-3.9-1.3l-3.8-1.2c-1.8-0.6-3.5-0.9-5.2-1.1c-1.6-0.2-3.1-0.3-4.6-0.2
						c-0.8,0-1.5,0.1-2.3,0.2c-0.7,0.1-1.7,0.3-2.5,0.5c-7.1,1.6-14.1,5.7-20.5,11c-3.2,2.7-6.2,5.6-8.9,8.7c-1.4,1.5-2.7,3.1-4,4.7
						c-0.6,0.8-1.3,1.6-1.9,2.4c-0.6,0.8-1.3,1.7-1.9,2.5c-4.1,6.3-8,12.6-11.2,17.8c-0.1,0.1-0.1,0.2-0.2,0.3
						c0.9-1.3,1.8-2.5,2.7-3.9c-2.8,4.9-4.6,7.4-7,12.1c0.5-0.4,1.1-1,1.5-1.4c-3.1,6.3-6,12.8-8.4,19.4c-1.2,3.3-2.3,6.7-3.2,9.9
						c-0.4,1.6-0.9,3.2-1.2,4.8c-0.2,0.8-0.4,1.6-0.5,2.4l-0.4,2.4c-2.4,12.9-1.9,26.4-0.8,39.7c0.1,1.1,0.2,2.1,0.3,3.1
						c0.6,2.9,1.1,5.8,1.7,8.7c0.3,1.5,0.6,3,0.9,4.5l0.2,1.1l0.2,1c0.1,0.7,0.3,1.3,0.4,2c1.2,5.5,2.8,11.3,4.8,17.9
						c-1.2-4.5-2.2-8.8-3.1-13.1c2.4,9.1,5.6,18.4,8.8,29.5c1.1,3.7,2.2,7.8,3.1,11.5c1,3.8,1.9,7.7,2.8,11.5
						c1.8,7.7,3.3,15.3,4.6,22.5c1.3,7.2,2.3,14,3,20c0.2,1.5,0.3,2.9,0.5,4.3c0.1,1.4,0.3,2.7,0.4,3.9c0.2,2.5,0.4,4.9,0.5,7
						c0.9,5.1,1.7,10.5,2.3,16.1c0.1,1.4,0.2,2.8,0.3,4.3l0.1,1.1l0,1.5l0,2.2c0,2.5,0,4.5,0.1,5.8l0,0.5l0.1,0.3c0,0.1,0,0.1,0,0.2
						l0,0l0,0l0,0c0,0,0,0-0.1,0l-0.1,0l-0.5,0.1l-0.4,0.1l-0.9,0.2c-0.6,0.1-1.2,0.3-1.7,0.5l-0.9,0.3c-0.3,0.1-0.5,0.1-0.7,0.2
						c-0.5,0.1-0.9,0.3-1.4,0.5c-0.2,0.1-0.4,0.2-0.7,0.3l-0.3,0.2l-0.3,0.1c-0.3,0.1-0.7,0.3-1,0.5c-0.2,0.1-0.3,0.2-0.5,0.3
						l-0.2,0.2c-0.1,0-0.1,0.1-0.2,0.1c-0.2,0.1-0.4,0.3-0.6,0.4c-0.1,0.1-0.2,0.2-0.3,0.3l-0.1,0.1l0.6-0.6l0,0c0,0,0.3-0.3,0.6-1
						c0.1-0.2,0.1-0.3,0.2-0.6c0.1-0.2,0.2-0.5,0.2-0.7c0.1-0.3,0.2-0.6,0.2-0.9l0.2-1c0.2-1.4,0.3-3.2,0.2-5.2l0-0.8l0-0.4l0-0.1
						l0,0l0,0c0,0,0,0,0,0c0,0,0.1,0,0.2,0c0.3,0,1-0.2,1.8-0.4c0.8-0.2,1.7-0.5,2.7-0.8l3.4-1.1c0.7-0.2,1.3-0.4,2.2-0.7
						c1-0.3,2-0.6,3-0.8l2.1-0.4l2-0.4c1.3-0.3,2.6-0.5,3.9-0.7c2.6-0.4,5.2-0.9,7.8-1.2c5.2-0.7,10.3-1.2,15.3-1.7
						c5-0.4,10.1-0.7,15-1c4.7-0.3,9.5-0.6,14.3-0.9c19-1.4,38.2-3.3,57.4-5.3c3-0.3,5.7-0.4,6.3-0.2c0.3,0.2-1.6,0.6-4.6,0.9
						c-19.3,2.2-38.6,4.3-58,5.9c-4.8,0.4-9.7,0.7-14.5,1l-7.5,0.5c-2.5,0.2-5.1,0.4-7.6,0.6c-5.1,0.5-10.3,1-15.5,1.7
						c-2.6,0.4-5.2,0.8-7.8,1.2c-1.3,0.2-2.6,0.5-3.9,0.7l-2,0.4l-2.1,0.4c-0.6,0.1-1.2,0.3-1.8,0.5c-0.6,0.2-1.2,0.4-1.7,0.5
						l-2.5,0.8c-1.5,0.5-2.8,1-4,1.3c1.2-0.3,2.5-0.7,4-1.2l2.5-0.8c0.4-0.1,1.1-0.3,1.7-0.5c0.6-0.2,1.2-0.3,1.8-0.4l3.4-0.6
						c1.1-0.2,2.2-0.4,3.2-0.6c2.2-0.4,4.3-0.7,6.5-1c4.3-0.6,8.6-1,12.9-1.4c4.3-0.4,8.5-0.6,12.7-0.8c4.1-0.2,8.2-0.4,12.3-0.5
						c16.2-0.8,32.5-2,49.1-3.5c4.6-0.5,9.3-0.9,13.9-1.4c4.6-0.5,9.2-0.8,13.8-1.2c1.4-0.1,2.9-0.3,4.3-0.4
						c1.4-0.1,2.7-0.3,4.1-0.4c2.7-0.3,5.5-0.7,8.2-1c5.5-0.8,10.9-1.7,16.4-2.8c10.9-2.1,21.7-4.7,32.7-7.6
						c5.5-1.4,10.8-2.9,16-4.5c5.2-1.6,10.4-3.4,15.4-5.4c10-3.9,19.5-8.8,28-15c1.8-1.3,3.5-2.7,5.2-4.1c0.8-0.7,1.6-1.4,2.5-2.2
						c0.8-0.7,1.5-1.4,2.2-2.1c2.8-2.9,5.4-6,7.6-9.3c4.5-6.6,7.6-14,9.4-21.5c0.9-3.8,1.4-7.6,1.6-11.5c0-0.5,0.1-1,0.1-1.4l0-1.4
						c0-1,0-1.9-0.1-2.9c-0.1-1.9-0.3-3.8-0.6-5.8c-0.6-3.9-1.5-7.7-2.9-11.5c-0.7-1.9-1.4-3.8-2.2-5.6c-0.4-0.9-0.9-1.8-1.3-2.7
						c-0.6-1.1-1.1-2.2-1.7-3.3c-3.3-6.3-6.4-12.2-9.7-17.6c-1.6-2.7-3.3-5.2-5-7.4c-0.8-1.1-1.8-2.3-2.8-3.5c-1-1.2-2-2.4-3-3.5
						c-4.1-4.6-8.4-9-13-13c-4.5-3.9-9.3-7.5-14-10.4l-0.9-0.5l-0.4-0.3l-0.5-0.3l-2.1-1.2c-1.4-0.8-2.7-1.5-4.1-2.2
						c-2.7-1.5-5.5-2.8-8.2-4.1c-5.5-2.5-11-4.6-16.3-6.1c-2.7-0.7-5.4-1.3-8-1.7c-1.3-0.2-2.6-0.3-3.9-0.4l-1-0.1l-1.3-0.1
						l-2.7-0.2c-7-0.5-13.5-0.9-19.4-0.8c-3.1,0.1-5.9,0.3-8,0.4c-0.5,0-1,0.1-1.4,0.1c-0.4,0-0.8,0-1.1,0c-0.6,0-1.1-0.1-1.3-0.2
						c-0.8-0.4,2.7-2,9-2.4c6.1-0.4,12.8-0.2,20.1,0.2l5.6,0.3l2.3,0.1c0.7,0,1.4,0.1,2.2,0.2c2.9,0.3,5.9,0.9,8.9,1.6
						c6,1.5,12,3.8,18.1,6.5c3,1.4,6,2.9,9,4.5c1.5,0.8,3,1.6,4.5,2.5l1.1,0.6l1,0.6c0.7,0.4,1.3,0.8,2,1.2
						c10.6,6.8,20.6,16.3,29.1,26.6c1,1.3,2.1,2.6,3,3.8c0.9,1.3,1.8,2.6,2.7,3.9c1.8,2.7,3.5,5.6,5.2,8.6c1.7,3,3.3,6.1,5,9.4
						l2.5,4.9l1.2,2.3c0.4,0.7,0.7,1.4,1,2.1c2.6,5.6,4.3,11.7,5.3,17.8c0.4,3.1,0.7,6.1,0.7,9.2c0,3.1-0.3,6.2-0.7,9.3
						c-1.8,12.4-7.4,24.4-15.7,34c-0.5,0.6-1.1,1.2-1.6,1.7c-0.5,0.6-1.1,1.2-1.7,1.7l-1.7,1.6c-0.6,0.5-1.3,1.1-1.9,1.6
						c-0.6,0.5-1.2,1.1-1.9,1.6l-2,1.6c-1.3,1.1-2.7,2-4.1,3c-5.5,3.9-11.6,7.2-17.9,10.2c-6.4,3-13,5.5-19.9,7.7
						c-6.9,2.3-14,4.2-21.4,6.1c-12.7,3.2-25.1,6.1-37.4,8.3c0.2,0.1,0.3,0.1,0.4,0.2c0.1,0.3-1.1,0.8-3,1.4
						c14.1-2.3,28.3-5.6,42.5-9.1c9.8-2.7,19.3-5.7,28.5-9.3c9.1-3.6,17.9-7.9,25.8-13.2c4-2.6,7.8-5.5,11.3-8.7
						c0.9-0.8,1.7-1.6,2.5-2.3c0.4-0.4,0.8-0.8,1.2-1.2l1.2-1.2l1.2-1.2l1.1-1.3l1.1-1.3l1-1.4c5.6-7.3,9.7-15.9,12.1-25.1
						c0.2-0.8,0.4-1.6,0.6-2.4c0.2-0.8,0.3-1.6,0.5-2.4l0.2-1.2l0.2-1.2c0.1-0.8,0.2-1.6,0.3-2.4c0.3-3.2,0.5-6.3,0.4-9.4
						c-0.2-6.2-1.3-12.4-3.1-18.3c-0.9-2.9-2-5.8-3.3-8.6c-1.5-3.1-2.9-6.3-4.4-9.4c-2.9-6.2-5.9-12.1-9.3-17.5
						c-0.6-0.8-1.1-1.6-1.7-2.5c-0.6-0.8-1.2-1.6-1.8-2.4c-1.3-1.6-2.6-3.2-4-4.8c-2.7-3.2-5.6-6.2-8.5-9.1
						c-5.9-5.8-12.3-11.2-19-15.4c-0.8-0.5-1.7-1-2.5-1.6l-2.7-1.6c-1.8-1-3.7-2.1-5.6-3c-3.7-2-7.5-3.8-11.3-5.4
						c-7.6-3.2-15.3-5.6-22.9-6.7c-1.2-0.1-2.5-0.4-2.9-0.5c-0.4-0.1,0.2-0.3,1.5-0.1c10.6,0.9,21.6,4.6,32.3,9.8
						c2.7,1.3,5.4,2.6,8,4.1c1.3,0.7,2.7,1.5,4,2.2c1.2,0.7,2.5,1.4,3.7,2.2c2.4,1.5,4.8,3.2,7.2,5.1c2.4,1.8,4.7,3.7,6.9,5.7
						c-2.5-2.9-3.9-4.7-3.4-4.9c0.6-0.2,3.2,1.3,6.8,4.2c-4-3.8-8.2-7.5-12.7-10.7c-2.7-2-4.9-3.6-4.6-3.8c0.1-0.1,0.8,0.1,1.7,0.7
						c0.5,0.3,1,0.6,1.6,1c0.6,0.4,1.2,0.8,1.9,1.3c9.1,6.7,17.4,14.8,24.7,23.6c1.8,2.2,3.6,4.5,5.2,6.7c1.6,2.3,3.2,4.6,4.6,7.1
						c2.9,4.9,5.6,10,8.2,15.2l2.4,4.7c0.8,1.6,1.6,3.2,2.3,4.6c1.5,3,2.7,6.1,3.7,9.3c2.1,6.3,3.3,13,3.6,19.6
						c0.6,13.3-2.7,26.8-9.2,38.7c1.1-1.6,2-2.9,2.8-4c0.8-1.1,1.5-1.9,1.9-2.5c0,0,0,0,0,0c1.7-3.9,3-8,4-12
						c2.2-9.4,2.5-19.3,0.8-28.8c-0.8-4.8-2.1-9.5-3.8-14c-0.8-2.3-1.8-4.5-2.9-6.7l-0.8-1.6l-0.9-1.7l-1.7-3.4
						c-4.6-8.9-9.3-17.8-15.1-25.5c-6-7.8-12.8-15.1-20.2-21.7c-3.7-3.3-7.6-6.3-11.6-9.1c-2.1-1.4-4-2.6-6.2-3.9
						c-2.2-1.3-4.3-2.5-6.6-3.7c-8.8-4.7-17.9-8.8-27.4-11.3c-4.7-1.3-9.5-2.1-14.3-2.4c-5.1-0.3-10.3-0.7-15.3-1
						c-5-0.2-10-0.3-14.8,0.1c-4.8,0.4-9.5,1.3-13.9,2.8c-1.3,0.5-2.5,0.9-2.6,0.8c-0.1-0.1,0.9-0.6,2.2-1.1
						c2.7-0.9,5.5-1.7,8.3-2.2c2.9-0.5,5.8-0.8,8.7-0.9c5.9-0.3,12,0,18.1,0.4l9.3,0.6c2.9,0.2,5.8,0.6,8.7,1.1
						c5.8,1.1,11.5,2.9,17,5.1c0,0-0.1,0-0.1,0c-0.9-0.4-1-0.6,0-0.3c0.9,0.3,2.6,1,3.5,1.4c1,0.5,0.8,0.6,0,0.3
						c5.1,2.2,10.2,4.7,15.1,7.5c1.2,0.7,2.5,1.4,3.7,2.1l1.8,1.1l1.8,1.1c2.3,1.5,4.6,3,6.8,4.7c8.9,6.7,17,14.6,24.2,23.1
						c1.8,2.1,3.6,4.3,5.2,6.5c1.6,2.2,3.1,4.5,4.6,6.9c2.9,4.7,5.6,9.7,8.2,14.7c1.3,2.5,2.6,5,3.9,7.6c1.3,2.4,2.4,4.9,3.4,7.5
						c2,5.1,3.4,10.4,4.3,15.8c-0.7-5-2-10-3.7-14.8c-0.9-2.4-1.8-4.7-2.9-7c-0.5-1.1-1.1-2.3-1.7-3.5l-1.8-3.5
						c-4.7-9.3-9.4-18.6-15.6-26.7c-6.3-8.2-13.4-15.8-21.1-22.6c-3.9-3.4-8-6.5-12.2-9.3c-2.1-1.4-4.3-2.7-6.6-4
						c-2.2-1.3-4.5-2.6-6.8-3.8c-4.1-1.9-8.2-3.7-12.4-5.3c-1.1-0.5-2.6-1.1-3.1-1.4c-0.3-0.2,0.6,0,1.8,0.4
						c1.2,0.4,2.4,0.9,3.5,1.3c-7.1-3.2-12.8-5.2-12.5-5.9c0.6-0.5,7.3,0.8,14.9,4.3c5.1,2.2,10,4.7,14.8,7.4
						c2.4,1.4,4.8,2.7,7.1,4.2c2.3,1.5,4.6,3,6.8,4.7c4.4,3.3,8.6,6.9,12.5,10.8c4,3.8,7.7,7.9,11.3,12.1c1.6,1.8,3.1,3.6,4.6,5.5
						c1.5,1.9,3,3.8,4.4,5.7c-2.3-3.6-4.9-7.1-7.6-10.5c-2.7-3.3-5.5-6.6-8.5-9.7c-5.9-6.2-12.3-12-19.3-17.1
						c-3.5-2.5-7.2-4.8-10.9-6.9c-3.7-2.1-7.5-4.2-11.4-6.1c-7.7-3.8-15.8-6.9-24.2-8.8c-2.9-0.6-5.4-1.2-5.4-1.4
						c0-0.3,2.4-0.1,5.4,0.5c3.8,0.7,7.5,1.8,11.2,2.9c3.7,1.2,7.2,2.5,10.7,4.1c7,3,13.8,6.6,20.4,10.5c6.7,4,12.8,8.7,18.6,13.9
						c5.8,5.1,11.1,10.7,16.1,16.7c1.2,1.5,2.4,3,3.6,4.5c1.2,1.6,2.4,3.2,3.4,4.8c2.2,3.2,4.2,6.6,6.1,10c1.9,3.4,3.7,6.8,5.4,10.2
						l2.6,5.1l1.3,2.5c0.4,0.9,0.9,1.8,1.3,2.7c3.3,7.3,5.6,15,6.8,22.9c0.6,4,0.9,8,0.8,12c0,2-0.2,4-0.3,6c-0.1,1-0.2,2-0.3,3
						c-0.1,1-0.2,2-0.4,3c-1.2,10.5-4.5,20.9-9.7,30.4c-2.6,4.8-5.6,9.3-9.2,13.6c-0.9,1-1.8,2.1-2.7,3.1l-2.9,3
						c-2,1.9-3.9,3.8-6,5.5c2.2-1.6,4.3-3.5,6.4-5.3c13.6-12.2,22.2-28.3,25.7-44.9c0.5-2.1,0.8-4.2,1.1-6.3
						c0.2-2.1,0.5-4.2,0.6-6.3c0-1.1,0.1-2.1,0.1-3.1l0-3.1c0-2.1-0.2-4.2-0.4-6.3c-0.9-8.3-2.9-16.3-6-23.8
						c-0.8-1.9-1.6-3.7-2.5-5.6c-1-1.9-1.8-3.4-2.7-5.1c-1.8-3.3-3.6-6.7-5.5-10.1c-3.8-6.7-7.9-13.6-13-19.8
						c-5-6.2-10.4-12-16.2-17.4c-5.9-5.5-12.2-10.6-19.2-15.1c-1.4-0.9-2.6-1.7-2.7-1.9c-0.1-0.2,0.9,0.3,2.4,1.2
						c7,4.3,13.2,9.3,19,14.5c5.8,5.3,11.1,10.8,16.1,16.8c1.2,1.5,2.4,3,3.7,4.6c1.2,1.6,2.3,3.2,3.4,4.8c2.2,3.3,4.2,6.6,6.1,9.9
						c1.9,3.4,3.7,6.7,5.5,10.1c0.9,1.7,1.8,3.4,2.7,5.1c0.4,0.8,0.9,1.8,1.4,2.7c0.4,0.9,0.9,1.9,1.3,2.9c2.8,6.4,4.8,13,6,19.7
						c0.6,3.4,1,6.8,1.2,10.2c0.2,3.4,0.1,6.8-0.1,10.2c-0.9,13.5-5.1,26.5-11.6,37.9c7-11.6,11.3-24.6,12.3-37.8
						c0.5-6.6,0.3-13.3-0.8-19.8c-1.1-6.5-2.9-12.8-5.3-18.9c-0.6-1.5-1.3-3-2-4.5c-0.3-0.7-0.7-1.5-1.1-2.2l-1-2l-4.2-8
						c-2.8-5.4-5.8-10.8-9.3-16.1c-1.7-2.6-3.6-5.3-5.6-7.8c-1.9-2.5-4-4.9-6-7.2c-4.2-4.7-8.6-9.1-13.3-13.4c-1.7-1.4-3.3-3-4.3-4
						c-0.1,0-0.5-0.3-1.1-0.7c-2.6-1.9-5.2-3.8-8.1-5.7c-1.4-0.9-2.9-1.9-4.4-2.8c-0.8-0.4-1.5-0.9-2.3-1.3
						c-0.7-0.4-1.5-0.8-2.3-1.2c-1.2-0.6-2.6-1.5-3.1-1.9C1625.5,533.6,1626.3,533.9,1627.6,534.6z M1415.1,444.6
						c0.4-0.1,0.7-0.2,1-0.3c-0.5,0.2-1.1,0.4-1.7,0.5c-0.6,0.2-1.2,0.5-1.8,0.7c0,0,0,0-0.6,0.2c-0.7,0.1-1.9,0.6-4.5,1.5
						c0,0,0.2-0.1,0.6-0.3c0.4-0.2,1-0.4,1.7-0.7c0.7-0.3,1.5-0.6,2.4-0.9C1413.2,445.1,1414.2,444.8,1415.1,444.6z M1480.2,454.3
						C1480.2,454.3,1480.2,454.3,1480.2,454.3c0.7,0.6,1.2,1.2,1.6,1.6c0.4,0.4,0.6,0.7,0.6,0.7
						C1481.5,455.6,1480.8,454.9,1480.2,454.3z M1423.1,743.7c-4.4,0.4-8.8,0.9-13.2,1.5c-2.2,0.3-4.4,0.6-6.7,1l-3.3,0.6l-1.7,0.3
						l-1.8,0.4c-1.6,0.3-3.3,0.9-4.3,1.2l-3.1,1c-1.9,0.6-3.5,1.1-4.8,1.3c-0.6,0.1-1.1,0.2-1.4,0.2c-0.1,0-0.1,0-0.1,0c0,0,0,0,0,0
						l0,0.5l0,0.6c0,1.5-0.2,2.9-0.4,3.9c-0.3,1.1-0.4,1.8-0.7,2.4c0,0.1-0.1,0.2-0.2,0.3l-0.1,0.2c0,0.1-0.1,0.1-0.1,0.2
						c0,0,0,0,0,0l-0.6,0.5c0.1-0.1,0.2-0.2,0.2-0.2c0.2-0.2,0.3-0.3,0.5-0.4c0.3-0.1,0.9-0.7,1.5-0.9c0.3-0.1,0.6-0.3,0.9-0.4
						c0.4-0.2,0.8-0.4,1.1-0.5c0.4-0.2,0.8-0.3,1.2-0.4l0.6-0.2l0.7-0.3c0.5-0.2,1-0.3,1.5-0.5l0.1,0l0,0l0,0l0,0l0-0.2
						c0-0.1,0-0.4-0.1-0.6c0-0.6-0.1-1.2-0.1-2c0-1.6,0.1-3.4,0.1-5.7l0-1l0-1.2l-0.1-1.9c-0.1-1.2-0.1-2.4-0.2-3.6
						c-0.2-2.4-0.4-4.7-0.6-7c0.5,3.3,0.9,6.7,1.1,10.2l0.1,1.3l0,0.7l0,0.9l0,1.5l0,1.2c0,1.5,0,2.9,0,4.1c0,1,0.1,1.9,0.1,2.5
						c0,0.1,0,0.3,0,0.4c0,0.1,0,0.2,0,0.2l0,0l0,0l-0.1,0l-0.2,0.1l-0.5,0.1c-0.6,0.2-1.3,0.4-1.9,0.6c-1.1,0.3-2,0.7-3,1.2
						c-0.4,0.2-0.8,0.3-1.1,0.5c-0.3,0.2-0.7,0.4-1,0.7c-0.2,0.1-0.5,0.3-0.7,0.5c-0.1,0.1-0.2,0.2-0.3,0.3l-0.1,0.1l0,0l0.6-0.6
						l0,0l0,0l0.1-0.1c0.1-0.1,0.1-0.1,0.1-0.2c0.1-0.1,0.2-0.3,0.2-0.4c0.1-0.1,0.2-0.4,0.2-0.6c0.3-0.9,0.6-2.1,0.8-3.8
						c0-0.4,0.1-0.9,0.1-1.4l0.1-1.5l0-0.8c0,0,0,0,0,0c0,0,0,0,0.1,0c0.2,0,0.9-0.1,1.7-0.2c0.8-0.2,1.8-0.4,2.9-0.7
						c1.1-0.3,2.3-0.7,3.6-1.1l2.2-0.7c1-0.3,2-0.6,3-0.8l1.8-0.3l1.7-0.3c1.1-0.2,2.2-0.4,3.3-0.6c2.2-0.4,4.5-0.7,6.7-0.9
						C1414.2,744.4,1418.7,744,1423.1,743.7z M1456.6,450.8c-5.8-2.6-10.4-4.7-14.7-6.6c-3.6-0.8-7.2-1.3-10.9-1.2
						c-2.5,0-4.8,0.3-7.3,0.9c-1.3,0.3-2.5,0.6-3.7,1l-1.8,0.6l-1.8,0.7c-2.4,0.9-4.7,2.1-7,3.3c-2.3,1.3-4.5,2.7-6.6,4.3
						c1.3-0.6-0.7,0.9-1.7,1.8c-1,0.9-2,1.8-3,2.7c4.3-3.8,9-7,13.9-9.5c1.2-0.6,2.5-1.1,3.7-1.7l1.9-0.7c0.6-0.2,1.3-0.5,1.9-0.6
						l1.9-0.6c0.6-0.2,1.3-0.3,1.9-0.5c1.3-0.3,2.6-0.5,3.8-0.7c4.5-0.5,9.1-0.1,13.8,1.2c2.2,0.6,5.3,1.7,7.9,2.6
						C1451.5,448.8,1454.1,449.8,1456.6,450.8z M1516.4,505.4c0.2,0.3,0.3,0.6,0.5,1c0,0,0,0-1.7-1.8
						C1515.2,504.7,1515.8,505,1516.4,505.4z M1519.2,508.2c-0.3-0.5-0.6-1.1-0.9-1.6C1518.8,507.1,1519,507.6,1519.2,508.2z
						 M1510.9,494.3c0.4,0.8,0.7,1.3,1,1.9c-0.5-1-0.8-1.4-0.9-1.7C1511,494.3,1510.9,494.3,1510.9,494.3z M1515.6,475.6
						c-2-1.2-4.1-2.5-6.2-3.7c2.2,1.4,4.3,2.8,6.4,4.2L1515.6,475.6z"/>
				</g>
			</g>
		</g>
	</g>
</g>
<g>
	<path class="st6" d="M224.1,111.4c-9.4-9.1-14.8-22.1-22.8-32.5c-9.5-12.3-19.6-26.3-32.1-35.6c-11-8.2-25.6-13.2-38.6-17.1
		c-7.9-2.4-15.8-3.1-24-1.3c-20.7,4.4-36.8,20-48.2,36.9C46.1,79.8,35,102.1,29,123.1c-7.5,26.2-4.4,49.5-0.2,75.9
		c2.6,16.3,8.2,31.6,12.5,47.4c5.3,19.6,9.9,39.3,13.6,59.2c1.9,10.2,4,20.5,4.4,30.9c0.2,3.7-0.8,13.8,2.3,17
		c4.5,4.6,16.7-1.4,21.4-2.4c13.8-3,28.3-4.1,42.3-4.8c29.3-1.4,58.6-4.4,87.8-7.2c22.9-2.2,45.7-7.4,68-13.3
		c25.1-6.6,49.7-15.4,69.3-33c16.5-14.7,26.3-36.7,26-59.2c-0.2-11.5-3.1-23.3-8.3-33.6c-5.3-10.6-10.9-22.4-18-31.9
		c-9.7-12.9-23.4-26.5-37.3-34.9c-15.5-9.3-33.5-17.9-51.8-19c-15.8-1-33.2-3.2-48.3,3.4"/>
	<g>
		<g>
			<g>
				<path class="st7" d="M188.7,91.6c-0.5-0.8-0.8-1.4-1.3-2.2c0.6,0.7,1.2,1.3,1.9,2.4c0.7,1,1.5,2.1,2.3,3.5
					c-0.9-1.7-1.8-3.2-2.8-4.7l-0.7-1.1c-0.1-0.2-0.3-0.4-0.4-0.6l-0.5-0.7c-0.6-0.9-1.3-1.8-1.9-2.8c-2.6-3.7-5.2-7.3-7.9-10.8
					C171.8,67.6,166,61.3,160,57c-0.7-0.6-1.5-1-2.2-1.5c-0.8-0.5-1.5-1-2.3-1.4c-1.6-0.9-3.3-1.7-5-2.6c-3.5-1.6-7.2-3-10.9-4.2
					c-3.7-1.2-7.5-2.2-11.3-3.1c-0.9-0.2-1.9-0.5-2.8-0.7c-0.5-0.1-0.8-0.2-1.1-0.2c-0.3-0.1-0.7-0.1-1-0.2
					c-1.3-0.2-2.5-0.3-3.6-0.4c-3.2-0.5-5.9-0.2-8,0.4c-0.5,0.1-1,0.3-1.4,0.5c-0.5,0.2-0.9,0.4-1.3,0.6c-0.7,0.4-1.1,0.6-1.2,0.9
					c-0.2,0.5,1,0.6,2.9,0.4c1.7,0,4-0.2,6.7,0.1c1.2,0.2,2.7,0.5,3.6,0.8c2.8,1.1,5.7,2.3,8.8,3.6c3.5,1.4,7,2.9,10.4,4.5
					c3.4,1.6,6.6,3.3,9.4,5.2c0.7,0.4,1.4,0.9,2,1.4c0.6,0.5,1.3,0.9,1.8,1.4c0.3,0.2,0.6,0.4,0.9,0.7l0.9,0.8
					c0.6,0.5,1.3,1.2,1.9,1.7c-0.5-0.5-1-1-1.5-1.5c-0.5-0.5-1-0.9-1.5-1.4c-0.9-0.8-1.8-1.6-2.9-2.4c1.6,1.1,2.9,2.1,4.5,3.5
					c1.5,1.4,3.2,2.9,4.9,4.6c-0.3-0.5-0.6-1-0.9-1.5c5.2,5.6,11.5,13.8,18.3,22.4c1.6,2,3.1,3.9,4.6,5.7c1.2,1.5,2.4,3.2,3.6,4.9
					c2.5,3.5,5.1,7.2,7.6,10.3c2.5,3.1,4.5,5.2,5.8,6.1c1.3,0.9,1.7,0.7,1.3-0.6c-0.4-1.3-1.5-3.6-3.1-6.7c-1.6-3.1-3.5-7-5.7-11.2
					C191.1,95.9,189.9,93.6,188.7,91.6z"/>
				<path class="st7" d="M170.5,61.4c3.5,4,6.8,8.3,10,12.8c1.6,2.2,3.2,4.6,4.8,6.9c1.6,2.3,3.2,4.7,4.8,7c0.3,0.6,0.6,1.1,0.9,1.7
					l0.7-1.3l-0.2-0.1c-0.4-0.4-0.8-0.8-1.2-1.3c-0.5-0.5-1-1.1-1.5-1.7c-1-1.2-2.1-2.4-3.2-3.7c-2.2-2.5-4.5-5.2-7-8.1
					c-4.9-5.6-10.1-11.2-15.3-15.4c-1.2-1-2.5-1.9-3.8-2.7c-0.5-0.3-0.9-0.5-1.2-0.7c-0.4-0.2-0.8-0.4-1.1-0.5
					c-0.6-0.3-1.1-0.4-1.4-0.4c-0.6,0-0.1,0.6,1,1.7c1.2,1,3,2.6,5.2,4.5c1.7,1.6,3.5,3.2,5.2,5.1c3,3.4,6.5,7.6,10.2,12.3
					c3.7,4.8,7.4,9.7,11.1,14.4c3,4.1,6.1,9,9.3,13.6c1.6,2.3,3.2,4.4,4.8,6.3c1.6,1.9,3.1,3.6,4.5,4.8c2.5,2.3,1.2-0.4,1.2-1.3
					c0.7,0.1-0.5-1.9-2.4-5.1c-0.9-1.6-2-3.4-3.3-5.6c-1.2-2.1-2.5-4.3-3.9-6.6c-1.4-2.3-2.7-4.3-3.9-6.1c-1.2-1.7-2.4-3.3-3.4-4.4
					c-0.5-0.5-1.1-1.2-1.6-1.8c-0.5-0.6-1-1.1-1.4-1.4c-0.8-0.8-1.4-1.2-1.7-1.2c-1-1.4-2.1-2.9-3.1-4.4c0.9,1,1.9,2.1,2.8,3.1
					c-2.4-1.9-8.3-9.4-13-14c-2.2-2.4-4.5-4.7-6.7-6.8c0.4,0.8,0.8,1.7,1.2,2.6c0.4,0.9,0.7,1.7,1.1,2.6c0.6,0.6,1.2,1.1,1.8,1.7
					c0.6,0.6,1.2,1.2,1.8,1.8c-0.2-0.3-0.6-1-0.5-1c3.4,3.4,6.7,7.1,10,11c1.7,2,3.4,4,5.2,6.2c0.8,1,1.7,2.1,2.6,3.1
					c0.7,0.9,1.5,1.9,2.2,2.9c2.6,3.4,5.2,7.4,8.2,11.7c1.3,1.7,2,2.4,2.2,2.2c0.1-0.3-0.4-1.5-1.5-3.5l-3.1-5.9
					c0.4,0.9,0.9,1.8,1.3,2.6c-1.9-3.3-3.7-6.5-5.5-9.3c-0.5-0.7-0.9-1.4-1.4-2.1l-0.7-1l-0.8-1.2l-3.4-4.7
					c-4.5-6.2-8.9-12.1-13.4-17.3c-1.4-1.7-3.3-3.4-4.2-4.1C168.5,59,169,59.8,170.5,61.4z"/>
				<g>
					<path class="st7" d="M201.2,101.6c1.2,2.3,2.4,4.5,4.7,7.7c0.6,0.7,1,1.1,1.1,1.3c-0.8-1.3-1.8-3-2.7-4.6
						C202.4,102.7,201.4,101.3,201.2,101.6z"/>
					<path class="st7" d="M207,110.6c0.4,0.6,0.7,1.1,0.9,1.4c0.2,0.3,0.4,0.5,0.4,0.5c-0.3-0.5-0.5-0.9-0.8-1.4
						c-0.3-0.3-0.3-0.4-0.3-0.4S207.2,110.8,207,110.6z"/>
					<path class="st7" d="M211.4,323c21.9-1.8,44.2-6.8,66.6-12.6c11-2.8,21.6-6.1,31.4-10.2c9.9-4.1,19-9.2,26.9-15.5
						c1.1-0.8,1.9-1.7,1.8-1.8c0-0.1-0.9,0.5-1.8,1.3c-7.9,6.3-16.9,11.3-26.7,15.5c-9.8,4.1-20.3,7.4-31.3,10.2
						c-22.3,5.8-44.5,10.7-66.4,12.6c-1.5,0.1-2.9,0.4-3,0.5C208.8,323.1,210,323.1,211.4,323z"/>
					<path class="st7" d="M298,129.4c1,0.4,1,0.3,0.1-0.3c-0.8-0.5-2.4-1.3-3.4-1.7c-0.9-0.3-0.9-0.2-0.1,0.3
						C295.6,128.3,297.1,129.1,298,129.4z"/>
					<path class="st7" d="M311.6,125.6c1.5,0.8,2.9,1.6,4.4,2.4c1.5,0.9,2.9,1.7,4.3,2.6c2.8,1.7,5.4,3.5,7.8,5.2
						c0.9,0.7,1.9,1.4,2.5,2.1c-0.2-0.4,1,0.3,2.9,1.9c4.8,3.9,9.3,8.1,13.6,12.6c2.2,2.3,4.3,4.6,6.3,7c1,1.2,2,2.4,3,3.7
						c1,1.3,2,2.6,3,3.9c3.8,5.3,7.1,10.9,10.1,16.4c1.5,2.8,3,5.5,4.4,8.2l2.1,4.1l1.1,2.2c0.4,0.8,0.7,1.6,1.1,2.3
						c2.9,6.3,5,12.9,6.3,19.7c0.7,3.4,1.1,6.9,1.4,10.4c0.1,1.7,0.2,3.5,0.2,5.3l0,2.6c0,0.9-0.1,1.8-0.1,2.6
						c-0.4,7-1.6,14-3.6,20.7c-2,6.7-4.9,13.2-8.4,19.2c-0.1,0.4-0.3,1.1-0.8,2.3c-1.7,3.5-6,10.2-12,16c-1.5,1.4-3.1,2.8-4.6,4.1
						c-9.2,7.8-19.5,14-30.1,18.9c-10.6,4.9-21.4,8.6-32.2,11.6c-4.3,1.5-9.4,3.1-14.8,4.5c-18.2,5.3-36.9,10.2-56.7,13.2
						c1.3,0,2,0,2.1,0.2c-0.3,0.5-4.9,1.4-10.3,1.9c-2.6,0.3-5.2,0.5-7.8,0.8c3.8-0.3,7.4-0.6,11.4-0.9c3.9-0.4,7.9-0.8,11.7-1.3
						c1.1-0.2,2.2-0.3,3.1-0.4c8.5-1.3,17-3,25.4-4.9c9.3-2.1,18.3-4.5,27.2-6.9c9-2.5,18.1-5.3,27.1-8.8c4.5-1.8,8.9-3.6,13.3-5.8
						c2.2-1,4.4-2.2,6.5-3.3c1.1-0.6,2.1-1.2,3.2-1.8c1.1-0.6,2.1-1.2,3.2-1.9c4.2-2.5,8.3-5.4,12.2-8.3c1.9-1.6,3.9-3.1,5.7-4.7
						c0.9-0.8,1.9-1.6,2.8-2.5l2.8-2.7c14.4-14.8,23.2-34.1,25.3-54c1.1-9.9,0.3-20.2-2-29.7c-1.2-4.8-2.7-9.4-4.6-14
						c-1-2.3-2-4.5-3.2-6.6l-3-5.7c-0.6-1-1.4-2.6-1.7-3.6c-0.2-0.7,0-0.6,0.6,0.5c1.3,2.4,2.7,4.7,4,7.1l0.5,0.9l0.5,0.9
						c0.4,0.7,0.7,1.3,1.1,2c0.7,1.4,1.4,2.7,2,4.1c2.5,5.5,4.5,11.2,5.9,17.1c1.4,5.9,2.2,11.9,2.3,18.1c0.2,6.1-0.3,12.3-1.4,18.4
						c-2.2,12.2-6.9,24.3-14.4,35.4c-1,1.4-1.9,2.8-2.9,4.1c-1.1,1.3-2.1,2.7-3.2,4c-1.2,1.3-2.3,2.6-3.5,3.9
						c-0.6,0.6-1.2,1.2-1.9,1.9l-0.9,0.9l-0.9,0.9c-4.9,4.6-10.3,8.9-16.2,12.8c-13.9,9.3-28.9,15.6-43.6,20.6
						c-7.4,2.5-14.7,4.6-21.8,6.6c-7.2,2-14.4,4-21.8,5.8c-7.4,1.8-14.9,3.4-22.6,4.8c-3.8,0.7-7.7,1.3-11.6,1.9
						c-3.8,0.6-8,1-11.5,1.5c-14.6,1.7-29.4,3.4-44.5,5c-7.1,0.6-14.2,1.2-21.2,1.7c-3.5,0.2-7.1,0.5-10.6,0.7
						c-3.5,0.2-7,0.4-10.4,0.6c-6.6,0.4-13,0.9-19.2,1.6c-3.1,0.4-6.1,0.8-9.1,1.3c-1.5,0.2-3,0.5-4.4,0.8l-2.2,0.4l-2,0.4
						c-0.2,0.1,0.1,0-0.9,0.3l-2.9,1c-2.2,0.8-4.9,1.6-8.2,2.4c-1.7,0.4-3.5,0.7-5.8,1c-2.3,0.2-5,0.4-8.6-0.2
						c-0.4-0.1-0.9-0.1-1.4-0.2c-0.5-0.1-1-0.2-1.5-0.3c-0.5-0.1-1.1-0.3-1.6-0.4c-0.5-0.2-1-0.3-1.6-0.6c-0.6-0.2-1.2-0.5-1.7-0.7
						c-0.6-0.2-1.2-0.6-1.8-0.9c-1.2-0.6-2.4-1.4-3.6-2.3c-1.2-0.9-2.3-1.9-3.3-3c-1-1.1-2-2.4-2.9-3.6c-0.6-1-1.2-2-1.8-3.1
						c-0.1-0.2-0.3-0.6-0.4-0.8l-0.3-0.6l-0.5-1.3l-0.5-1.3l-0.3-1c-0.2-0.7-0.4-1.4-0.6-2c-0.3-1.1-0.5-2.4-0.7-3.4l-0.2-1.5
						L37,349l-0.1-0.7l0-0.6l-0.1-1.2c-0.1-1.5-0.1-3-0.1-4.3l0-3.5l0-1.1l0-0.6c0-0.8-0.1-1.6-0.2-2.5c-0.2-1.7-0.4-3.4-0.6-5.2
						c-0.5-3.6-1.2-7.3-2-11.4c-0.8-4.1-1.6-8.2-2.5-12.4c-1.7-8.1-3.5-16.3-5.5-24.5C24.6,276,23.3,271,22,266
						c-0.7-2.5-1.4-5-2-7.5l-1-3.7l-1-3.7c-2.7-9.5-6.2-19.7-9.2-30.9c-1.5-5.6-2.8-11.6-3.8-17.6c-0.9-5.3-1.7-10.6-2.5-16.2
						c-1.5-11-2.6-22.9-2.3-35.2c0.2-6.2,0.8-12.4,1.7-18.7c0.3-1.6,0.5-3.1,0.8-4.7l1-4.6c0.3-1.5,0.8-3.1,1.1-4.6l0.6-2.3l0.6-2.2
						c3.4-11.5,7.7-22.3,12.6-32.7c5-10.4,10.5-20.4,16.8-30.2l2.4-3.7c0.9-1.3,1.8-2.6,2.7-3.8c0.9-1.3,1.9-2.5,2.8-3.8
						c1-1.2,2-2.5,3-3.7c4.1-4.9,8.6-9.7,13.7-14.2c3.8-3.4,7.9-6.5,12.2-9.3c4.3-2.8,8.9-5.1,13.6-7.1c2.4-0.9,4.7-1.8,7.1-2.5
						c1.2-0.3,2.3-0.7,3.5-1c1.2-0.3,2.3-0.5,3.5-0.8c0.6-0.1,1.1-0.3,1.7-0.4c0.6-0.1,1.2-0.2,1.8-0.3c1.2-0.2,2.4-0.3,3.6-0.4
						c2.4-0.2,4.8-0.3,7-0.3c4.5,0.1,8.6,0.6,12.2,1.4c3.5,0.8,6.5,1.7,9,2.7c0.6,0.2,1.2,0.5,1.7,0.7c0.4,0.2,0.8,0.4,1.2,0.6
						c0.7,0.4,1.4,0.7,2,1.1c1.2,0.7,2,1.3,2.4,1.7c1,1.1-0.5,1.4-3.8,1.1c-0.8-0.1-1.8-0.2-2.8-0.3c-1.3-0.2-2.7-0.4-4.3-0.7
						c-3.2-0.5-7.1-0.9-11.5-1c3.5,0.3,6.9,0.8,10.2,1.6c2.5,0.6,5.2,1.5,7,2.1c2,0.7,4,1.4,6.1,2.1c5.8,2.1,11.3,4.4,16,6.8
						c4.7,2.4,8.7,5,11.7,7.3c1.4,1,2.7,2.1,4,3.2l2,1.7c0.6,0.6,1.2,1.2,1.8,1.8c2.3,2.5,4.9,5.3,7.3,8.4c2.4,3,4.8,6.3,6.9,9.5
						c4.3,6.4,7.8,12.6,9.8,17l-1.9-1.2l1.2,1.9c1,1.5,1.9,3,2.7,4.3c0.4,0.7,0.7,1.3,1.1,1.9c0.4,0.6,0.7,1.2,1,1.8
						c1.2,2.2,1.8,3.9,1.9,4.8l-1.2-0.1c-0.9-0.3-2.1-1.1-3.6-2.3c-1.5-1.2-3.4-2.8-5.5-4.8c-0.2,0.4-1,0.1-2.2-0.9
						c2.2,4.6,2.8,7.1-0.5,4.7c1.6,2.6,0.9,2.4-1.4-0.3c-0.8-0.9-1.7-2.1-2.7-3.3c0,0,0,0,0,0c0.8,1.5,1,1.9,2.1,3.8
						c0.9,1.2,1.6,2.2,2,2.8c0.5,0.6,0.7,1,0.7,1c2.1,3,3.1,4.6,4,6.1c0.9,1.5,1.8,2.9,3.5,5.9c1.4,2.6,2.5,4.8,3.3,6.3
						c0.8,1.5,1.2,2.4,1.2,2.4c1.2,3.4,1.9,5.1,2.1,5.9c0.2,0.8-0.1,0.7-0.8,0.5c-0.3-0.3-0.6-0.6-1-1c1.6,2.4,2.6,3.7,3.2,4.6
						c0.6,0.9,1,1.3,1.5,1.9c1,1.4,1.8,2.4,1.8,2.4c-0.1,0.5-0.1,0.5,0.6,1.4c0.1,0.4,0,0.4,0,0.4c-2.9-2.3-2.8-2.3-3-2.3
						c-0.7-0.5-1.5-1.4-1.5-1.4c-2.8-3.1-3.7-4.3-4.1-4.8c-2-3.7-2.8-5.5-3.3-6.4c-0.4-0.9-0.4-0.9-0.4-0.9
						c-1.2-1.2-1.2-1.2-1.2-1.2c-0.5-1.8-0.5-1.8-0.5-1.8c0.1,1.1,0.1,1.1,0.1,1.1c-1.8-3.4-1.8-3.4-1.8-3.4c2,3.9,2,3.9,2,3.9
						c-2.3-3.8-3.4-5.7-4.2-7.1c-0.8-1.3-1.2-2-2.1-3.3c-1.8-2.9-3.4-5-3.6-5.2c0,0.3,0,0.4,0,0.4c-0.3-0.4-0.6-0.8-0.8-1.2
						c-0.3-0.4-0.6-0.8-0.9-1.2c-0.5-0.7-1-1.4-1.5-2c-0.9-1.2-1.5-2.1-2.2-3c-1.4-1.8-2.7-3.7-5.4-7.2c-0.4-0.7-0.8-1.3-1.1-1.8
						c-0.6-0.6-1.7-1.8-2.8-3.1c-1-1.2-1.9-2.3-2.9-3.4c-0.2-0.2-0.5-0.5-0.7-0.7c0,0,0,0,0,0c-1.1-1.1-1.8-1.8-2.7-2.6
						c-0.5-0.5-0.6-0.5-0.6-0.5c0,0,0,0,0,0c-0.9-0.8-2.1-1.9-3.9-3.3c-0.5-0.4-1-0.8-1.5-1.2c-0.6-0.4-1.2-0.9-1.8-1.3
						c-0.7-0.5-1.4-0.9-2.2-1.5c-0.8-0.5-1.6-1-2.6-1.5c-1.9-1.3-3.8-2.5-5.7-3.6c0.6,0.4,1.2,0.7,1.7,1.1c1,0.7-0.2,0.5,0.4,0.9
						c1.8,1.1,3.5,2.3,5,3.6c0.8,0.6,1.6,1.3,2.4,2c0.8,0.7,1.6,1.4,2.4,2.2c3.2,3,6.3,6.5,9.4,10.3c3.1,3.8,6.2,7.8,9.3,12.1
						l4.8,6.5c0.9,1.2,1.4,2,2.1,2.9c0.6,0.9,1.3,1.9,1.9,2.9c1.9,2.8,3.6,6,3.6,6.7c0,0.6-1.7-1.6-3.7-4.6c-1.4-2-2.9-3.9-4.3-5.5
						c-1.8-2.1-3.6-4.3-5.4-6.5c-3.6-4.3-7.1-8.6-10.7-12.5c-1.8-2-3.6-3.9-5.4-5.7c-1.8-1.8-3.7-3.5-5.5-5
						c-0.9-0.8-1.9-1.5-2.8-2.2l-1.3-0.9l-1.4-0.9c-1.9-1.2-4.1-2.4-6.3-3.5c-4.5-2.2-9.6-4.2-14.9-6.1c-2.6-0.9-5.4-1.8-8.2-2.7
						l-1.8-0.6c-0.5-0.2-1-0.3-1.5-0.4c-1-0.3-2-0.5-3-0.7c-1.9-0.3-3.8-0.5-5.6-0.5c-0.9,0-1.8,0.1-2.7,0.1
						c-0.9,0.1-1.8,0.2-2.8,0.5c-4.1,0.8-8,2.2-11.8,4.1c-8,4.2-15.4,11.1-21.9,19.1c0.4-0.3,0.7-0.7,1.1-1c-1.8,2-3.4,4.2-5,6.3
						c-0.2,0.2-0.3,0.5-0.5,0.7c1.4-1.6,2.7-3.1,4.1-4.6c0.9-1.1,1.8-2.1,2.7-3.2c3.8-4.5,7.9-8.5,12.1-11.6c4.2-3.1,8.6-5.7,13-7.2
						l1.7-0.6c0.5-0.2,1.1-0.3,1.7-0.5c0.6-0.1,1.1-0.3,1.7-0.4l1.7-0.3c0.6-0.1,1.1-0.2,1.6-0.3c0.5-0.1,1-0.1,1.5-0.1
						c1-0.1,1.9-0.1,2.9-0.1c1.9,0.1,3.9,0.4,6,0.9c1,0.2,2.1,0.6,3.2,0.9c1.4,0.5,2.9,1,4.3,1.5c6.4,2.2,11.9,4.5,16.8,7
						c2.4,1.2,4.7,2.5,6.8,3.9c1,0.7,2,1.4,3,2.1c0.9,0.7,1.8,1.4,2.7,2.2c2,1.6,3.2,3.1,2.8,3.1c-0.4,0-2.4-1.6-4.3-3
						c-3-2.2-6.7-4.2-11-6.2c-4.3-1.9-9.1-3.7-14.2-5.4l-3.9-1.3l-3.8-1.2c-1.8-0.6-3.5-0.9-5.2-1.1c-1.6-0.2-3.1-0.3-4.6-0.2
						c-0.8,0-1.5,0.1-2.3,0.2c-0.7,0.1-1.7,0.3-2.5,0.5c-7.1,1.6-14.1,5.7-20.5,11c-3.2,2.7-6.2,5.6-8.9,8.7c-1.4,1.5-2.7,3.1-4,4.7
						c-0.6,0.8-1.3,1.6-1.9,2.4c-0.6,0.8-1.3,1.7-1.9,2.5c-4.1,6.3-8,12.6-11.2,17.8c-0.1,0.1-0.1,0.2-0.2,0.3
						c0.9-1.3,1.8-2.5,2.7-3.9c-2.8,4.9-4.6,7.4-7,12.1c0.5-0.4,1.1-1,1.5-1.4c-3.1,6.3-6,12.8-8.4,19.4c-1.2,3.3-2.3,6.7-3.2,9.9
						c-0.4,1.6-0.9,3.2-1.2,4.8c-0.2,0.8-0.4,1.6-0.5,2.4l-0.4,2.4c-2.4,12.9-1.9,26.4-0.8,39.7c0.1,1.1,0.2,2.1,0.3,3.1
						c0.6,2.9,1.1,5.8,1.7,8.7c0.3,1.5,0.6,3,0.9,4.5l0.2,1.1l0.2,1c0.1,0.7,0.3,1.3,0.4,2c1.2,5.5,2.8,11.3,4.8,17.9
						c-1.2-4.5-2.2-8.8-3.1-13.1c2.4,9.1,5.6,18.4,8.8,29.5c1.1,3.7,2.2,7.8,3.1,11.5c1,3.8,1.9,7.7,2.8,11.5
						c1.8,7.7,3.3,15.3,4.6,22.5c1.3,7.2,2.3,14,3,20c0.2,1.5,0.3,2.9,0.5,4.3c0.1,1.4,0.3,2.7,0.4,3.9c0.2,2.5,0.4,4.9,0.5,7
						c0.9,5.1,1.7,10.5,2.3,16.1c0.1,1.4,0.2,2.8,0.3,4.3l0.1,1.1l0,1.5l0,2.2c0,2.5,0,4.5,0.1,5.8l0,0.5l0.1,0.3c0,0.1,0,0.1,0,0.2
						l0,0l0,0l0,0c0,0,0,0-0.1,0l-0.1,0l-0.5,0.1l-0.4,0.1l-0.9,0.2c-0.6,0.1-1.2,0.3-1.7,0.5l-0.9,0.3c-0.3,0.1-0.5,0.1-0.7,0.2
						c-0.5,0.1-0.9,0.3-1.4,0.5c-0.2,0.1-0.4,0.2-0.7,0.3l-0.3,0.2l-0.3,0.1c-0.3,0.1-0.7,0.3-1,0.5c-0.2,0.1-0.3,0.2-0.5,0.3
						l-0.2,0.2c-0.1,0-0.1,0.1-0.2,0.1c-0.2,0.1-0.4,0.3-0.6,0.4c-0.1,0.1-0.2,0.2-0.3,0.3l-0.1,0.1l0.6-0.6l0,0c0,0,0.3-0.3,0.6-1
						c0.1-0.2,0.1-0.3,0.2-0.6c0.1-0.2,0.2-0.5,0.2-0.7c0.1-0.3,0.2-0.6,0.2-0.9l0.2-1c0.2-1.4,0.3-3.2,0.2-5.2l0-0.8l0-0.4l0-0.1
						l0,0l0,0c0,0,0,0,0,0c0,0,0.1,0,0.2,0c0.3,0,1-0.2,1.8-0.4c0.8-0.2,1.7-0.5,2.7-0.8l3.4-1.1c0.7-0.2,1.3-0.4,2.2-0.7
						c1-0.3,2-0.6,3-0.8l2.1-0.4l2-0.4c1.3-0.3,2.6-0.5,3.9-0.7c2.6-0.4,5.2-0.9,7.8-1.2c5.2-0.7,10.3-1.2,15.3-1.7
						c5-0.4,10.1-0.7,15-1c4.7-0.3,9.5-0.6,14.3-0.9c19-1.4,38.2-3.3,57.4-5.3c3-0.3,5.7-0.4,6.3-0.2c0.3,0.2-1.6,0.6-4.6,0.9
						c-19.3,2.2-38.6,4.3-58,5.9c-4.8,0.4-9.7,0.7-14.5,1l-7.5,0.5c-2.5,0.2-5.1,0.4-7.6,0.6c-5.1,0.5-10.3,1-15.5,1.7
						c-2.6,0.4-5.2,0.8-7.8,1.2c-1.3,0.2-2.6,0.5-3.9,0.7l-2,0.4l-2.1,0.4c-0.6,0.1-1.2,0.3-1.8,0.5c-0.6,0.2-1.2,0.4-1.7,0.5
						l-2.5,0.8c-1.5,0.5-2.8,1-4,1.3c1.2-0.3,2.5-0.7,4-1.2l2.5-0.8c0.4-0.1,1.1-0.3,1.7-0.5c0.6-0.2,1.2-0.3,1.8-0.4l3.4-0.6
						c1.1-0.2,2.2-0.4,3.2-0.6c2.2-0.4,4.3-0.7,6.5-1c4.3-0.6,8.6-1,12.9-1.4c4.3-0.4,8.5-0.6,12.7-0.8c4.1-0.2,8.2-0.4,12.3-0.5
						c16.2-0.8,32.5-2,49.1-3.5c4.6-0.5,9.3-0.9,13.9-1.4c4.6-0.5,9.2-0.8,13.8-1.2c1.4-0.1,2.9-0.3,4.3-0.4
						c1.4-0.1,2.7-0.3,4.1-0.4c2.7-0.3,5.5-0.7,8.2-1c5.5-0.8,10.9-1.7,16.4-2.8c10.9-2.1,21.7-4.7,32.7-7.6
						c5.5-1.4,10.8-2.9,16-4.5c5.2-1.6,10.4-3.4,15.4-5.4c10-3.9,19.5-8.8,28-15c1.8-1.3,3.5-2.7,5.2-4.1c0.8-0.7,1.6-1.4,2.5-2.2
						c0.8-0.7,1.5-1.4,2.2-2.1c2.8-2.9,5.4-6,7.6-9.3c4.5-6.6,7.6-14,9.4-21.5c0.9-3.8,1.4-7.6,1.6-11.5c0-0.5,0.1-1,0.1-1.4l0-1.4
						c0-1,0-1.9-0.1-2.9c-0.1-1.9-0.3-3.8-0.6-5.8c-0.6-3.9-1.5-7.7-2.9-11.5c-0.7-1.9-1.4-3.8-2.2-5.6c-0.4-0.9-0.9-1.8-1.3-2.7
						c-0.6-1.1-1.1-2.2-1.7-3.3c-3.3-6.3-6.4-12.2-9.7-17.6c-1.6-2.7-3.3-5.2-5-7.4c-0.8-1.1-1.8-2.3-2.8-3.5c-1-1.2-2-2.4-3-3.5
						c-4.1-4.6-8.4-9-13-13c-4.5-3.9-9.3-7.5-14-10.4l-0.9-0.5l-0.4-0.3l-0.5-0.3l-2.1-1.2c-1.4-0.8-2.7-1.5-4.1-2.2
						c-2.7-1.5-5.5-2.8-8.2-4.1c-5.5-2.5-11-4.6-16.3-6.1c-2.7-0.7-5.4-1.3-8-1.7c-1.3-0.2-2.6-0.3-3.9-0.4l-1-0.1l-1.3-0.1
						l-2.7-0.2c-7-0.5-13.5-0.9-19.4-0.8c-3.1,0.1-5.9,0.3-8,0.4c-0.5,0-1,0.1-1.4,0.1c-0.4,0-0.8,0-1.1,0c-0.6,0-1.1-0.1-1.3-0.2
						c-0.8-0.4,2.7-2,9-2.4c6.1-0.4,12.8-0.2,20.1,0.2l5.6,0.3l2.3,0.1c0.7,0,1.4,0.1,2.2,0.2c2.9,0.3,5.9,0.9,8.9,1.6
						c6,1.5,12,3.8,18.1,6.5c3,1.4,6,2.9,9,4.5c1.5,0.8,3,1.6,4.5,2.5l1.1,0.6l1,0.6c0.7,0.4,1.3,0.8,2,1.2
						c10.6,6.8,20.6,16.3,29.1,26.6c1,1.3,2.1,2.6,3,3.8c0.9,1.3,1.8,2.6,2.7,3.9c1.8,2.7,3.5,5.6,5.2,8.6c1.7,3,3.3,6.1,5,9.4
						l2.5,4.9l1.2,2.3c0.4,0.7,0.7,1.4,1,2.1c2.6,5.6,4.3,11.7,5.3,17.8c0.4,3.1,0.7,6.1,0.7,9.2c0,3.1-0.3,6.2-0.7,9.3
						c-1.8,12.4-7.4,24.4-15.7,34c-0.5,0.6-1.1,1.2-1.6,1.7c-0.5,0.6-1.1,1.2-1.7,1.7l-1.7,1.6c-0.6,0.5-1.3,1.1-1.9,1.6
						c-0.6,0.5-1.2,1.1-1.9,1.6l-2,1.6c-1.3,1.1-2.7,2-4.1,3c-5.5,3.9-11.6,7.2-17.9,10.2c-6.4,3-13,5.5-19.9,7.7
						c-6.9,2.3-14,4.2-21.4,6.1c-12.7,3.2-25.1,6.1-37.4,8.3c0.2,0.1,0.3,0.1,0.4,0.2c0.1,0.3-1.1,0.8-3,1.4
						c14.1-2.3,28.3-5.6,42.5-9.1c9.8-2.7,19.3-5.7,28.5-9.3c9.1-3.6,17.9-7.9,25.8-13.2c4-2.6,7.8-5.5,11.3-8.7
						c0.9-0.8,1.7-1.6,2.5-2.3c0.4-0.4,0.8-0.8,1.2-1.2l1.2-1.2l1.2-1.2l1.1-1.3l1.1-1.3l1-1.4c5.6-7.3,9.7-15.9,12.1-25.1
						c0.2-0.8,0.4-1.6,0.6-2.4c0.2-0.8,0.3-1.6,0.5-2.4l0.2-1.2l0.2-1.2c0.1-0.8,0.2-1.6,0.3-2.4c0.3-3.2,0.5-6.3,0.4-9.4
						c-0.2-6.2-1.3-12.4-3.1-18.3c-0.9-2.9-2-5.8-3.3-8.6c-1.5-3.1-2.9-6.3-4.4-9.4c-2.9-6.2-5.9-12.1-9.3-17.5
						c-0.6-0.8-1.1-1.6-1.7-2.5c-0.6-0.8-1.2-1.6-1.8-2.4c-1.3-1.6-2.6-3.2-4-4.8c-2.7-3.2-5.6-6.2-8.5-9.1
						c-5.9-5.8-12.3-11.2-19-15.4c-0.8-0.5-1.7-1-2.5-1.6l-2.7-1.6c-1.8-1-3.7-2.1-5.6-3c-3.7-2-7.5-3.8-11.3-5.4
						c-7.6-3.2-15.3-5.6-22.9-6.7c-1.2-0.1-2.5-0.4-2.9-0.5c-0.4-0.1,0.2-0.3,1.5-0.1c10.6,0.9,21.6,4.6,32.3,9.8
						c2.7,1.3,5.4,2.6,8,4.1c1.3,0.7,2.7,1.5,4,2.2c1.2,0.7,2.5,1.4,3.7,2.2c2.4,1.5,4.8,3.2,7.2,5.1c2.4,1.8,4.7,3.7,6.9,5.7
						c-2.5-2.9-3.9-4.7-3.4-4.9c0.6-0.2,3.2,1.3,6.8,4.2c-4-3.8-8.2-7.5-12.7-10.7c-2.7-2-4.9-3.6-4.6-3.8c0.1-0.1,0.8,0.1,1.7,0.7
						c0.5,0.3,1,0.6,1.6,1c0.6,0.4,1.2,0.8,1.9,1.3c9.1,6.7,17.4,14.8,24.7,23.6c1.8,2.2,3.6,4.5,5.2,6.7c1.6,2.3,3.2,4.6,4.6,7.1
						c2.9,4.9,5.6,10,8.2,15.2l2.4,4.7c0.8,1.6,1.6,3.2,2.3,4.6c1.5,3,2.7,6.1,3.7,9.3c2.1,6.3,3.3,13,3.6,19.6
						c0.6,13.3-2.7,26.8-9.2,38.7c1.1-1.6,2-2.9,2.8-4c0.8-1.1,1.5-1.9,1.9-2.5c0,0,0,0,0,0c1.7-3.9,3-8,4-12
						c2.2-9.4,2.5-19.3,0.8-28.8c-0.8-4.8-2.1-9.5-3.8-14c-0.8-2.3-1.8-4.5-2.9-6.7l-0.8-1.6l-0.9-1.7l-1.7-3.4
						c-4.6-8.9-9.3-17.8-15.1-25.5c-6-7.8-12.8-15.1-20.2-21.7c-3.7-3.3-7.6-6.3-11.6-9.1c-2.1-1.4-4-2.6-6.2-3.9
						c-2.2-1.3-4.3-2.5-6.6-3.7c-8.8-4.7-17.9-8.8-27.4-11.3c-4.7-1.3-9.5-2.1-14.3-2.4c-5.1-0.3-10.3-0.7-15.3-1
						c-5-0.2-10-0.3-14.8,0.1c-4.8,0.4-9.5,1.3-13.9,2.8c-1.3,0.5-2.5,0.9-2.6,0.8c-0.1-0.1,0.9-0.6,2.2-1.1
						c2.7-0.9,5.5-1.7,8.3-2.2c2.9-0.5,5.8-0.8,8.7-0.9c5.9-0.3,12,0,18.1,0.4l9.3,0.6c2.9,0.2,5.8,0.6,8.7,1.1
						c5.8,1.1,11.5,2.9,17,5.1c0,0-0.1,0-0.1,0c-0.9-0.4-1-0.6,0-0.3c0.9,0.3,2.6,1,3.5,1.4c1,0.5,0.8,0.6,0,0.3
						c5.1,2.2,10.2,4.7,15.1,7.5c1.2,0.7,2.5,1.4,3.7,2.1l1.8,1.1l1.8,1.1c2.3,1.5,4.6,3,6.8,4.7c8.9,6.7,17,14.6,24.2,23.1
						c1.8,2.1,3.6,4.3,5.2,6.5c1.6,2.2,3.1,4.5,4.6,6.9c2.9,4.7,5.6,9.7,8.2,14.7c1.3,2.5,2.6,5,3.9,7.6c1.3,2.4,2.4,4.9,3.4,7.5
						c2,5.1,3.4,10.4,4.3,15.8c-0.7-5-2-10-3.7-14.8c-0.9-2.4-1.8-4.7-2.9-7c-0.5-1.1-1.1-2.3-1.7-3.5l-1.8-3.5
						c-4.7-9.3-9.4-18.6-15.6-26.7c-6.3-8.2-13.4-15.8-21.1-22.6c-3.9-3.4-8-6.5-12.2-9.3c-2.1-1.4-4.3-2.7-6.6-4
						c-2.2-1.3-4.5-2.6-6.8-3.8c-4.1-1.9-8.2-3.7-12.4-5.3c-1.1-0.5-2.6-1.1-3.1-1.4c-0.3-0.2,0.6,0,1.8,0.4
						c1.2,0.4,2.4,0.9,3.5,1.3c-7.1-3.2-12.8-5.2-12.5-5.9c0.6-0.5,7.3,0.8,14.9,4.3c5.1,2.2,10,4.7,14.8,7.4
						c2.4,1.4,4.8,2.7,7.1,4.2c2.3,1.5,4.6,3,6.8,4.7c4.4,3.3,8.6,6.9,12.5,10.8c4,3.8,7.7,7.9,11.3,12.1c1.6,1.8,3.1,3.6,4.6,5.5
						c1.5,1.9,3,3.8,4.4,5.7c-2.3-3.6-4.9-7.1-7.6-10.5c-2.7-3.3-5.5-6.6-8.5-9.7c-5.9-6.2-12.3-12-19.3-17.1
						c-3.5-2.5-7.2-4.8-10.9-6.9c-3.7-2.1-7.5-4.2-11.4-6.1c-7.7-3.8-15.8-6.9-24.2-8.8c-2.9-0.6-5.4-1.2-5.4-1.4
						c0-0.3,2.4-0.1,5.4,0.5c3.8,0.7,7.5,1.8,11.2,2.9c3.7,1.2,7.2,2.5,10.7,4.1c7,3,13.8,6.6,20.4,10.5c6.7,4,12.8,8.7,18.6,13.9
						c5.8,5.1,11.1,10.7,16.1,16.7c1.2,1.5,2.4,3,3.6,4.5c1.2,1.6,2.4,3.2,3.4,4.8c2.2,3.2,4.2,6.6,6.1,10c1.9,3.4,3.7,6.8,5.4,10.2
						l2.6,5.1l1.3,2.5c0.4,0.9,0.9,1.8,1.3,2.7c3.3,7.3,5.6,15,6.8,22.9c0.6,4,0.9,8,0.8,12c0,2-0.2,4-0.3,6c-0.1,1-0.2,2-0.3,3
						c-0.1,1-0.2,2-0.4,3c-1.2,10.5-4.5,20.9-9.7,30.4c-2.6,4.8-5.6,9.3-9.2,13.6c-0.9,1-1.8,2.1-2.7,3.1l-2.9,3
						c-2,1.9-3.9,3.8-6,5.5c2.2-1.6,4.3-3.5,6.4-5.3c13.6-12.2,22.2-28.3,25.7-44.9c0.5-2.1,0.8-4.2,1.1-6.3
						c0.2-2.1,0.5-4.2,0.6-6.3c0-1.1,0.1-2.1,0.1-3.1l0-3.1c0-2.1-0.2-4.2-0.4-6.3c-0.9-8.3-2.9-16.3-6-23.8
						c-0.8-1.9-1.6-3.7-2.5-5.6c-1-1.9-1.8-3.4-2.7-5.1c-1.8-3.3-3.6-6.7-5.5-10.1c-3.8-6.7-7.9-13.6-13-19.8
						c-5-6.2-10.4-12-16.2-17.4c-5.9-5.5-12.2-10.6-19.2-15.1c-1.4-0.9-2.6-1.7-2.7-1.9c-0.1-0.2,0.9,0.3,2.4,1.2
						c7,4.3,13.2,9.3,19,14.5c5.8,5.3,11.1,10.8,16.1,16.8c1.2,1.5,2.4,3,3.7,4.6c1.2,1.6,2.3,3.2,3.4,4.8c2.2,3.3,4.2,6.6,6.1,9.9
						c1.9,3.4,3.7,6.7,5.5,10.1c0.9,1.7,1.8,3.4,2.7,5.1c0.4,0.8,0.9,1.8,1.4,2.7c0.4,0.9,0.9,1.9,1.3,2.9c2.8,6.4,4.8,13,6,19.7
						c0.6,3.4,1,6.8,1.2,10.2c0.2,3.4,0.1,6.8-0.1,10.2c-0.9,13.5-5.1,26.5-11.6,37.9c7-11.6,11.3-24.6,12.3-37.8
						c0.5-6.6,0.3-13.3-0.8-19.8c-1.1-6.5-2.9-12.8-5.3-18.9c-0.6-1.5-1.3-3-2-4.5c-0.3-0.7-0.7-1.5-1.1-2.2l-1-2l-4.2-8
						c-2.8-5.4-5.8-10.8-9.3-16.1c-1.7-2.6-3.6-5.3-5.6-7.8c-1.9-2.5-4-4.9-6-7.2c-4.2-4.7-8.6-9.1-13.3-13.4c-1.7-1.4-3.3-3-4.3-4
						c-0.1,0-0.5-0.3-1.1-0.7c-2.6-1.9-5.2-3.8-8.1-5.7c-1.4-0.9-2.9-1.9-4.4-2.8c-0.8-0.4-1.5-0.9-2.3-1.3
						c-0.7-0.4-1.5-0.8-2.3-1.2c-1.2-0.6-2.6-1.5-3.1-1.9C309.5,124.6,310.3,124.9,311.6,125.6z M99.1,35.6c0.4-0.1,0.7-0.2,1-0.3
						c-0.5,0.2-1.1,0.4-1.7,0.5c-0.6,0.2-1.2,0.5-1.8,0.7c0,0,0,0-0.6,0.2c-0.7,0.1-1.9,0.6-4.5,1.5c0,0,0.2-0.1,0.6-0.3
						c0.4-0.2,1-0.4,1.7-0.7c0.7-0.3,1.5-0.6,2.4-0.9C97.2,36.1,98.2,35.8,99.1,35.6z M164.2,45.3C164.2,45.3,164.2,45.3,164.2,45.3
						c0.7,0.6,1.2,1.2,1.6,1.6c0.4,0.4,0.6,0.7,0.6,0.7C165.5,46.6,164.8,45.9,164.2,45.3z M107.1,334.7c-4.4,0.4-8.8,0.9-13.2,1.5
						c-2.2,0.3-4.4,0.6-6.7,1l-3.3,0.6l-1.7,0.3l-1.8,0.4c-1.6,0.3-3.3,0.9-4.3,1.2l-3.1,1c-1.9,0.6-3.5,1.1-4.8,1.3
						c-0.6,0.1-1.1,0.2-1.4,0.2c-0.1,0-0.1,0-0.1,0c0,0,0,0,0,0l0,0.5l0,0.6c0,1.5-0.2,2.9-0.4,3.9c-0.3,1.1-0.4,1.8-0.7,2.4
						c0,0.1-0.1,0.2-0.2,0.3l-0.1,0.2c0,0.1-0.1,0.1-0.1,0.2c0,0,0,0,0,0l-0.6,0.5c0.1-0.1,0.2-0.2,0.2-0.2c0.2-0.2,0.3-0.3,0.5-0.4
						c0.3-0.1,0.9-0.7,1.5-0.9c0.3-0.1,0.6-0.3,0.9-0.4c0.4-0.2,0.8-0.4,1.1-0.5c0.4-0.2,0.8-0.3,1.2-0.4l0.6-0.2l0.7-0.3
						c0.5-0.2,1-0.3,1.5-0.5l0.1,0l0,0l0,0l0,0l0-0.2c0-0.1,0-0.4-0.1-0.6c0-0.6-0.1-1.2-0.1-2c0-1.6,0.1-3.4,0.1-5.7l0-1l0-1.2
						l-0.1-1.9c-0.1-1.2-0.1-2.4-0.2-3.6c-0.2-2.4-0.4-4.7-0.6-7c0.5,3.3,0.9,6.7,1.1,10.2l0.1,1.3l0,0.7l0,0.9l0,1.5l0,1.2
						c0,1.5,0,2.9,0,4.1c0,1,0.1,1.9,0.1,2.5c0,0.1,0,0.3,0,0.4c0,0.1,0,0.2,0,0.2l0,0l0,0l-0.1,0l-0.2,0.1l-0.5,0.1
						c-0.6,0.2-1.3,0.4-1.9,0.6c-1.1,0.3-2,0.7-3,1.2c-0.4,0.2-0.8,0.3-1.1,0.5c-0.3,0.2-0.7,0.4-1,0.7c-0.2,0.1-0.5,0.3-0.7,0.5
						c-0.1,0.1-0.2,0.2-0.3,0.3l-0.1,0.1l0,0l0.6-0.6l0,0l0,0l0.1-0.1c0.1-0.1,0.1-0.1,0.1-0.2c0.1-0.1,0.2-0.3,0.2-0.4
						c0.1-0.1,0.2-0.4,0.2-0.6c0.3-0.9,0.6-2.1,0.8-3.8c0-0.4,0.1-0.9,0.1-1.4l0.1-1.5l0-0.8c0,0,0,0,0,0c0,0,0,0,0.1,0
						c0.2,0,0.9-0.1,1.7-0.2c0.8-0.2,1.8-0.4,2.9-0.7c1.1-0.3,2.3-0.7,3.6-1.1l2.2-0.7c1-0.3,2-0.6,3-0.8l1.8-0.3l1.7-0.3
						c1.1-0.2,2.2-0.4,3.3-0.6c2.2-0.4,4.5-0.7,6.7-0.9C98.2,335.4,102.7,335,107.1,334.7z M140.6,41.8c-5.8-2.6-10.4-4.7-14.7-6.6
						c-3.6-0.8-7.2-1.3-10.9-1.2c-2.5,0-4.8,0.3-7.3,0.9c-1.3,0.3-2.5,0.6-3.7,1l-1.8,0.6l-1.8,0.7c-2.4,0.9-4.7,2.1-7,3.3
						c-2.3,1.3-4.5,2.7-6.6,4.3c1.3-0.6-0.7,0.9-1.7,1.8c-1,0.9-2,1.8-3,2.7c4.3-3.8,9-7,13.9-9.5c1.2-0.6,2.5-1.1,3.7-1.7l1.9-0.7
						c0.6-0.2,1.3-0.5,1.9-0.6l1.9-0.6c0.6-0.2,1.3-0.3,1.9-0.5c1.3-0.3,2.6-0.5,3.8-0.7c4.5-0.5,9.1-0.1,13.8,1.2
						c2.2,0.6,5.3,1.7,7.9,2.6C135.5,39.8,138.1,40.8,140.6,41.8z M200.4,96.4c0.2,0.3,0.3,0.6,0.5,1c0,0,0,0-1.7-1.8
						C199.2,95.7,199.8,96,200.4,96.4z M203.2,99.2c-0.3-0.5-0.6-1.1-0.9-1.6C202.8,98.1,203,98.6,203.2,99.2z M194.9,85.3
						c0.4,0.8,0.7,1.3,1,1.9c-0.5-1-0.8-1.4-0.9-1.7C195,85.3,194.9,85.3,194.9,85.3z M199.6,66.6c-2-1.2-4.1-2.5-6.2-3.7
						c2.2,1.4,4.3,2.8,6.4,4.2L199.6,66.6z"/>
				</g>
			</g>
		</g>
	</g>
</g>
<g>
	<path class="st8" d="M2676.2,1104.5c-327.9,0-655.9,0-983.8,0.1c-2.9,0-3.5-0.7-3.5-3.5c0.1-131,0.1-261.9,0-392.9
		c0-2.9,0.7-3.5,3.5-3.5c327.9,0.1,655.9,0.1,983.8,0.1c0.7,1.3,0.4,2.8,0.4,4.2c0,130.5,0,261,0,391.5
		C2676.6,1101.8,2676.9,1103.2,2676.2,1104.5z"/>
	<path d="M2676.2,1104.5c-0.1-1.5-0.2-3.1-0.2-4.6c0-130.2,0-260.4,0-390.6c0-1.5,0.1-3.1,0.2-4.6c1.9,0.4,0.7,1.9,0.7,2.7
		c0.1,14.9,0.1,29.8,0.1,44.8c0,116.3,0,232.6,0,348.9C2676.9,1102.2,2677.8,1103.7,2676.2,1104.5z"/>
	<path class="st9" d="M1959.5,966.8c2.8-13.5,5.4-26.5,8-39.4c12.2-60.3,24.4-120.6,36.5-180.9c0.5-2.4,1.3-3.3,3.9-3.3
		c24.8,0.1,49.7,0.1,74.5,0c2.6,0,3.5,0.2,2.8,3.3c-16,75.1-31.9,150.2-47.8,225.4c-6.3,29.8-12.6,59.5-18.8,89.3
		c-0.6,2.9-1.5,4.1-4.9,4.1c-33.1-0.2-66.1-0.1-99.2,0c-3,0-4.1-0.9-4.9-3.7c-21.6-71.8-43.3-143.5-65-215.3c-0.4-1.2-0.3-2.6-2-3.8
		c-1.3,6.4-2.6,12.6-3.9,18.8c-12.8,63.8-25.6,127.7-38.4,191.5c-0.8,4-0.5,9.3-2.9,11.7c-2.7,2.5-8.1,0.7-12.3,0.7
		c-21.5,0.1-43-0.1-64.4,0.1c-3.5,0-3.8-0.9-3.2-4c11.8-54.9,23.5-109.7,35.2-164.6c10.6-49.9,21.3-99.7,31.8-149.6
		c0.6-2.9,1.6-3.9,4.6-3.9c33.3,0.1,66.6,0.1,100,0c2.8,0,3.9,0.7,4.7,3.5c21.2,72,42.4,144.1,63.7,216.1
		C1957.8,964,1957.9,965.3,1959.5,966.8z"/>
	<path class="st9" d="M2203.6,743.5c-4.5,21.7-8.9,43.2-13.3,64.7c-3.8,18.5-7.5,37-11.4,55.5c-0.5,2.3-0.1,2.9,2.2,2.9
		c32.2-0.1,64.3-0.1,96.5,0c2.6,0,2.9-1.4,3.3-3.2c6.5-31.6,13-63.1,19.5-94.7c1.6-7.5,3.2-15.1,4.6-22.6c0.4-2,1.1-2.8,3.2-2.8
		c26.9,0.1,53.8,0.1,80.7,0c2.8,0,2.8,1,2.4,3.2c-15,72.2-30,144.3-45,216.5c-6.8,32.7-13.6,65.4-20.2,98.1c-0.7,3.5-2,4.3-5.4,4.3
		c-25.9-0.2-51.7-0.1-77.6-0.1c-4.6,0-4.6,0-3.7-4.4c9-43.3,17.9-86.5,26.9-129.8c0.6-2.7,0.4-3.9-2.9-3.8c-31.5,0.1-63,0.1-94.5,0
		c-3.5,0-3.6,1.9-4.1,4.1c-9,43.5-18.1,87-27,130.5c-0.6,2.8-1.6,3.4-4.2,3.4c-26.2-0.1-52.5-0.1-78.7,0c-3.6,0-3.8-0.9-3.1-4.1
		c21.8-104.8,43.5-209.7,65.2-314.6c0.4-1.9,0.5-3.4,3.4-3.4c27.1,0.2,54.3,0.1,81.4,0.1C2202.2,743.3,2202.8,743.4,2203.6,743.5z"
		/>
	<path class="st9" d="M2373.7,989.2c35.8,16.9,72.7,21.6,111.2,14.9c8.7-1.5,16.9-4.5,24.1-9.8c16.8-12.5,17.2-35.6,0.8-48.6
		c-7.4-5.9-16-9.8-24.6-13.4c-13.8-5.8-28-10.7-41.5-17.5c-6.7-3.4-13-7.2-19-11.7c-16.6-12.5-25.9-29-27.4-49.7
		c-1.7-24.7,2.8-47.9,17.7-68.3c12.7-17.4,30.2-28.3,50.1-35.7c18.8-7,38.4-10.4,58.4-11.3c30.3-1.3,60.4-0.2,90.2,5.9
		c7.5,1.6,14.9,3.7,22.1,6.6c2.2,0.9,2.8,1.8,2,4.2c-6.3,19.3-12.5,38.6-18.5,58c-0.9,3-1.9,3-4.5,1.9
		c-32.5-14.1-66.3-16.4-100.9-10.5c-5.5,0.9-10.7,2.8-15.5,5.6c-15.2,9-17,28.9-3.6,40.5c6.2,5.4,13.5,8.8,20.9,12.1
		c14.7,6.4,29.9,11.6,44.2,19c9.3,4.8,18.1,10.2,25.9,17.3c15.3,13.9,23.3,31.4,24.5,51.9c1.6,26.3-3.3,50.9-20.1,72.2
		c-13.3,16.7-30.8,27.4-50.6,34.6c-30.5,11.1-62.3,14.3-94.5,13c-29.9-1.2-59.2-6.5-87.9-15.1c-2.8-0.9-3.4-1.8-2.5-4.7
		C2361.4,1030,2367.6,1009.5,2373.7,989.2z"/>
</g>
<g>
	<path class="st8" d="M917.7,898c-327.9,0-655.9,0-983.8,0.1c-2.9,0-3.5-0.7-3.5-3.5c0.1-131,0.1-261.9,0-392.9
		c0-2.9,0.7-3.5,3.5-3.5c327.9,0.1,655.9,0.1,983.8,0.1c0.7,1.3,0.4,2.8,0.4,4.2c0,130.5,0,261,0,391.5
		C918.1,895.3,918.4,896.7,917.7,898z"/>
	<path d="M917.7,898c-0.1-1.5-0.2-3.1-0.2-4.6c0-130.2,0-260.4,0-390.6c0-1.5,0.1-3.1,0.2-4.6c1.9,0.4,0.7,1.9,0.7,2.7
		c0.1,14.9,0.1,29.8,0.1,44.8c0,116.3,0,232.6,0,348.9C918.4,895.7,919.3,897.2,917.7,898z"/>
	<path class="st9" d="M201,760.3c2.8-13.5,5.4-26.5,8-39.4c12.2-60.3,24.4-120.6,36.5-180.9c0.5-2.4,1.3-3.3,3.9-3.3
		c24.8,0.1,49.7,0.1,74.5,0c2.6,0,3.5,0.2,2.8,3.3c-16,75.1-31.9,150.2-47.8,225.4c-6.3,29.8-12.6,59.5-18.8,89.3
		c-0.6,2.9-1.5,4.1-4.9,4.1c-33.1-0.2-66.1-0.1-99.2,0c-3,0-4.1-0.9-4.9-3.7c-21.6-71.8-43.3-143.5-65-215.3c-0.4-1.2-0.3-2.6-2-3.8
		c-1.3,6.4-2.6,12.6-3.9,18.8c-12.8,63.8-25.6,127.7-38.4,191.5c-0.8,4-0.5,9.3-2.9,11.7c-2.7,2.5-8.1,0.7-12.3,0.7
		c-21.5,0.1-43-0.1-64.4,0.1c-3.5,0-3.8-0.9-3.2-4c11.8-54.9,23.5-109.7,35.2-164.6C4.9,640.3,15.5,590.5,26,540.6
		c0.6-2.9,1.6-3.9,4.6-3.9c33.3,0.1,66.6,0.1,100,0c2.8,0,3.9,0.7,4.7,3.5c21.2,72,42.4,144.1,63.7,216.1
		C199.3,757.5,199.4,758.8,201,760.3z"/>
	<path class="st9" d="M445.1,537c-4.5,21.7-8.9,43.2-13.3,64.7c-3.8,18.5-7.5,37-11.4,55.5c-0.5,2.3-0.1,2.9,2.2,2.9
		c32.2-0.1,64.3-0.1,96.5,0c2.6,0,2.9-1.4,3.3-3.2c6.5-31.6,13-63.1,19.5-94.7c1.6-7.5,3.2-15.1,4.6-22.6c0.4-2,1.1-2.8,3.2-2.8
		c26.9,0.1,53.8,0.1,80.7,0c2.8,0,2.8,1,2.4,3.2c-15,72.2-30,144.3-45,216.5c-6.8,32.7-13.6,65.4-20.2,98.1c-0.7,3.5-2,4.3-5.4,4.3
		c-25.9-0.2-51.7-0.1-77.6-0.1c-4.6,0-4.6,0-3.7-4.4c9-43.3,17.9-86.5,26.9-129.8c0.6-2.7,0.4-3.9-2.9-3.8c-31.5,0.1-63,0.1-94.5,0
		c-3.5,0-3.6,1.9-4.1,4.1c-9,43.5-18.1,87-27,130.5c-0.6,2.8-1.6,3.4-4.2,3.4c-26.2-0.1-52.5-0.1-78.7,0c-3.6,0-3.8-0.9-3.1-4.1
		c21.8-104.8,43.5-209.7,65.2-314.6c0.4-1.9,0.5-3.4,3.4-3.4c27.1,0.2,54.3,0.1,81.4,0.1C443.7,536.8,444.3,536.9,445.1,537z"/>
	<path class="st9" d="M615.2,782.7c35.8,16.9,72.7,21.6,111.2,14.9c8.7-1.5,16.9-4.5,24.1-9.8c16.8-12.5,17.2-35.6,0.8-48.6
		c-7.4-5.9-16-9.8-24.6-13.4c-13.8-5.8-28-10.7-41.5-17.5c-6.7-3.4-13-7.2-19-11.7c-16.6-12.5-25.9-29-27.4-49.7
		c-1.7-24.7,2.8-47.9,17.7-68.3c12.7-17.4,30.2-28.3,50.1-35.7c18.8-7,38.4-10.4,58.4-11.3c30.3-1.3,60.4-0.2,90.2,5.9
		c7.5,1.6,14.9,3.7,22.1,6.6c2.2,0.9,2.8,1.8,2,4.2c-6.3,19.3-12.5,38.6-18.5,58c-0.9,3-1.9,3-4.5,1.9
		c-32.5-14.1-66.3-16.4-100.9-10.5c-5.5,0.9-10.7,2.8-15.5,5.6c-15.2,9-17,28.9-3.6,40.5c6.2,5.4,13.5,8.8,20.9,12.1
		c14.7,6.4,29.9,11.6,44.2,19c9.3,4.8,18.1,10.2,25.9,17.3c15.3,13.9,23.3,31.4,24.5,51.9c1.6,26.3-3.3,50.9-20.1,72.2
		c-13.3,16.7-30.8,27.4-50.6,34.6c-30.5,11.1-62.3,14.3-94.5,13c-29.9-1.2-59.2-6.5-87.9-15.1c-2.8-0.9-3.4-1.8-2.5-4.7
		C602.9,823.5,609.1,803,615.2,782.7z"/>
</g>
<g>
	<path class="st10" d="M1384,1281.6c0.4-0.9,1.2-1.5,2.1-1.7c1-0.2,2.5-0.3,4.6-0.1c6.9,0.1,16.6-0.6,29.2-2
		c6.8-0.8,20.7-3.4,41.7-7.9c20.9-4.5,31.7-6.4,32.5-5.7c1.2,1.2,1.2,2.4,0.1,3.8c-0.4,0.7-9.8,3-28.2,6.9l-27.6,6l1.7,1.8
		c1.1,1.3,1.9,3.6,2.6,6.7c0.7,3.1,1.5,10.3,2.4,21.7c0.9,11.3,1.4,21.2,1.5,29.5c0.7,26.1,1.5,43.3,2.2,51.5
		c0.2,2.8-0.4,4.3-1.7,4.6c-0.5,0.1-0.9,0.1-1.2,0c-0.7-0.3-1.2-1.3-1.6-3.1c-0.7-3.4-1.6-18.1-2.5-44c-0.3-9.6-1.2-26.6-2.7-51
		c-0.2-3.8-0.4-6.4-0.7-7.7c-0.5-2.4-1.8-4.3-3.7-5.6c-1.5-1.1-2.4-2-2.5-2.7c-0.1-0.5-3.3-0.4-9.4,0.3c-9.3,1.3-17.8,2.1-25.6,2.3
		c-7.8,0.3-12.1-0.1-12.9-1C1383.6,1283.4,1383.5,1282.5,1384,1281.6z"/>
	<path class="st10" d="M1522.1,1286.7c0.6-1,1-1.5,1.2-1.5c1.7-0.4,3.6,0.6,5.7,3c3.5,3.8,7.4,13.2,11.5,28.2c1,3.5,1.8,6,2.4,7.6
		c0.3,0.9,0.6,1.4,0.7,1.3c0.1-0.2,0.2-1.3,0.4-3.5c1-12,6.5-19.1,16.3-21.2c3.2-0.7,6.1-0.7,8.5,0.1c9.9,2.8,18.1,10.5,24.6,23
		c1.8,3.5,3.1,7.2,4,11.3c2.2,10.2,1.8,15.6-1.3,16.3c-1.4,0.3-2.2-0.2-2.5-1.6c-0.3-1.4-0.4-3-0.3-4.8c0-3.1-0.3-6-0.9-8.6
		c-1.3-6.1-4.1-12.2-8.4-18.2c-2-2.8-4.7-5.4-8.1-7.8c-5.2-3.7-10.3-5-15.2-4c-4.7,1-7.9,3.6-9.7,7.6c-1.8,4.1-2.5,10.9-2.3,20.5
		c0.1,3.3-0.3,5.1-0.9,5.5c-0.5,0.5-0.5,2.2,0.1,4.9l1.5,7.1l1.1,5.3c0.9,3.9,1.2,6.3,1.2,7.2c-0.2,0.9-0.8,1.5-1.9,1.7
		c-1.1,0.2-1.8,0-2.4-0.8c-0.5-0.5-1.8-5.6-3.9-15.4c-4-18.7-7.9-33.2-11.5-43.4c-2.2-5.9-3.7-9.7-4.5-11.3
		c-0.8-1.6-1.9-2.9-3.3-3.9C1522.1,1289.9,1521.3,1288.3,1522.1,1286.7z"/>
	<path class="st10" d="M1636.2,1249.9c1.5-1.3,3.3-2.2,5.2-2.6c1.2-0.3,2.5-0.3,3.6-0.1c3.2,0.9,6.2,3.2,9.1,7
		c3.6,4.9,6.7,10.7,9.1,17.5c2.4,6.8,5.2,17.2,8.2,31.2l2.4,11.2l2.5,3.3c5.7,7.7,12.8,11.4,21.4,11.2c3.2-0.1,5,0.5,5.2,1.9
		c0.1,0.3,0.1,0.8,0,1.7c-0.2,1-0.9,1.7-2.3,2c-4.2,0.9-9,0.2-14.3-2.1c-5.3-2.3-9.6-5.6-12.9-9.7l-2.7-3.7l-1.4,3.3
		c-2.4,5.5-5.8,10.1-10.2,13.9c-4.4,3.8-9.1,6.2-14.1,7.3c-4.6,1-9.1,0.7-13.6-0.9c-1.8-0.6-3.9-1.9-6.2-3.8
		c-2.3-1.9-4.2-3.8-5.5-5.6c-1.7-2.6-3-5.7-3.8-9.4c-1.5-7.1-1.3-15.2,0.7-24.5c1.8-8.2,4.2-13.9,7.2-17.1c1.1-1.1,1.4-1.8,0.9-2.1
		c-0.5-0.3-0.8-0.9-1-1.7c-0.2-0.8-0.1-1.5,0.3-2c1.4-2,5-3.6,11-4.9c7.7-1.7,14.9,0.2,21.7,5.5l3.3,2.5l-1.2-3.8
		c-3.4-10.5-7.3-17.4-11.6-20.7c-1.8-1.3-3.6-1.8-5.2-1.4c-1.5,0.3-2.8,1.1-4,2.3c-2,2.3-3.6,2.6-5,0.9c-0.2-0.1-0.3-0.4-0.4-0.8
		C1632.4,1253.8,1633.6,1251.9,1636.2,1249.9z M1646.3,1276.9c-2.6-0.7-5.8-0.7-9.7,0c-0.7,0.2-1.5,0.3-2.3,0.4
		c-0.8,0.1-1.3,0.2-1.4,0.2c-1,0.2-1.5,0.5-1.4,0.7l0.8,0.9c0.6,0.6,1,1.2,1.2,1.9c0.2,0.8,0,1.6-0.6,2.4c-0.6,0.8-1.3,1.1-1.9,0.9
		l-0.6,0.1c-2.2,0.5-4.2,2.6-6,6.4c-1.6,3.9-2.8,8.8-3.6,14.7c-0.8,5.9-0.8,10.8-0.1,14.6l0.5,2.4c1,4.8,3.2,8.4,6.6,10.9
		c4.9,3.8,10.3,5,16.1,3.8c5.1-1.1,9.9-4,14.6-8.7c5.4-5.6,8.2-12,8.4-19.3c0.1-1.9-0.2-4.7-1.1-8.5c-0.5-2.3-0.9-3.6-1.2-3.8
		c-0.3-0.2-0.8-1.5-1.6-3.9c-0.9-3.6-3-7-6.1-10C1653.7,1280.2,1650.2,1278.1,1646.3,1276.9z"/>
	<path class="st10" d="M1735.7,1246.7c1.5-1,3.7-1.9,6.8-2.5c3.5-0.7,6.5-0.9,9.2-0.5c8.1,1.4,15.5,6.7,22.4,15.8
		c7,9.7,11.9,21.1,14.7,34.1c0.7,3.4,1.3,6.8,1.6,10.1c0.3,5.2-0.2,7.9-1.5,8.2c-0.5,0.1-1.2-0.2-2.1-0.8c-0.6-0.4-1-2.1-1.3-5.1
		c-0.2-2.5-0.7-5.8-1.6-9.9c-1.3-6.1-2.8-11.2-4.5-15.2c-4.6-11.2-10-19.6-16.2-25.3c-6.2-5.6-12.4-7.8-18.5-6.4
		c-0.7,0.2-1.8,0.5-3.2,1.1c-6.2,2.6-10.5,7.9-13.1,15.9c-2.6,8-3.7,19.3-3.2,33.9c0,4.1,0.8,10.2,2.4,18.2l2.2,12.1l-1.7,0.4
		l-0.6,0.1c-1.1,0.2-1.9-0.1-2.5-1.1c-0.5-1-1.2-3.2-2.1-6.7l-0.6-2.9c-2.6-11.9-3.3-24.4-2.3-37.5
		C1721.6,1264.8,1726.8,1252.8,1735.7,1246.7z"/>
	<path class="st10" d="M1796.4,1226.2c0.3-0.6,0.8-1,1.5-1.2c0.6-0.1,2.2,0.8,4.8,2.7c2.6,1.9,4.4,3.6,5.5,5.1
		c5.2,7.1,8.9,16.1,11.3,27l1.3,6.1l1-2.8c2.1-5.9,5.3-12.3,9.8-19.4c4.9-7.7,7.7-11.7,8.3-11.8c0.4-0.1,0.7-0.1,1,0
		c1,0.2,1.5,0.9,1.8,2c0.2,1-1.7,4.9-5.8,11.7c-6.8,10.9-10.1,17-9.8,18.5c0.1,0.5,0.9,1,2.4,1.4c1.4,0.5,3.3,1.6,5.6,3.3
		c2.4,1.6,4.3,3.3,5.9,5.1c3.1,3.5,8.2,10.6,15.5,21.4c1.8,2.6,2.2,4.4,1.2,5.5c-0.7,0.4-1.1,0.7-1.2,0.7c-1.2,0.3-3.2-1.7-5.9-6
		c-7.8-12-13.9-19.6-18.5-22.9c-2.3-1.6-4.1-2.3-5.5-2c-0.6,0.1-1.1,0.5-1.5,1c-0.4,0.7-0.9,1.1-1.7,1.2c-0.6,0.1-0.7,1.4-0.4,3.7
		c2.3,20.1,2.9,31.3,1.8,33.5c-0.3,0.8-1,1.2-2.1,1.1c-1.4,0.2-2.3-0.6-2.7-2.4c-0.1-0.7-0.2-1.8-0.2-3.4c0-1.6,0-2.6,0-3
		c0-11.4-1.5-24.1-4.6-38.2c-1.9-8.7-3.9-15.4-6.1-20c-3-6.2-6.3-10.4-9.9-12.6c-1.8-1.3-2.9-2.5-3.1-3.6
		C1795.9,1227.4,1796,1226.8,1796.4,1226.2z"/>
	<path class="st10" d="M1950.2,1179.1c0.7-0.7,1.6-0.8,2.7-0.2c0.8,0.5,1.2,1.2,1.4,1.8c0.1,0.7,0,2.3-0.5,5
		c-2.1,9.5-4.3,32.5-6.6,68.8c-1.5,21.2-2.8,32.9-3.8,35.2c-1.1,1.9-2.4,2.3-3.8,1c-0.5-0.5-0.6-1.7-0.4-3.7
		c1.1-9.6,2.3-21.9,3.3-36.7l1.1-15.6l-7.2-9.1c-8.7-10.9-15.9-18.8-21.6-23.7c-2.2-1.8-3.7-2.5-4.4-2.3c-0.1,0-0.3,0.1-0.6,0.1
		l-0.3,0.3c-1.4,0.3-2.2-0.5-2.7-2.4c-0.3-1.2-0.2-2.4,0.2-3.7c0.4-1.2,0.9-1.9,1.7-2.1l0.6-0.1c0.9,0.1,3.2,1.6,6.9,4.5
		c3.7,2.9,6.7,5.7,9.2,8.2c3,3.1,8.1,9.2,15.4,18.4l3.1,3.8l0.1-2.4c0.6-8.8,1.6-18.3,3-28.6
		C1948.4,1185.5,1949.5,1179.9,1950.2,1179.1z"/>
	<path class="st10" d="M1996.3,1187.2c1.6-0.8,3.4-1.4,5.4-1.8c4.9-1.1,10.6-0.9,16.9,0.4c6.3,1.3,12,3.7,17,7.2
		c8.2,5.8,13.2,12.8,15,21.1c0.6,2.6,0.8,5,0.8,7.3c0,8-2.1,15.8-6.3,23.4c-4.2,7.7-9.6,13.2-16.1,16.6c-1.9,1-4.4,1.8-7.6,2.5
		c-3.2,0.7-5.7,0.9-7.4,0.7c-6.5-0.6-12-3.2-16.6-7.8c-4.6-4.6-7.7-10.5-9.3-17.7l-0.4-2c-2.2-13.7,0.6-26.8,8.4-39.3l3.8-5.9
		l-2.5,1.2c-2.7,1.2-4.3,0.7-4.7-1.3C1992.4,1190.3,1993.6,1188.8,1996.3,1187.2z M2011.7,1190.1c-2.2-0.2-4-0.2-5.2,0.1
		c-0.7,0.2-1.2,0.4-1.3,0.6c-0.1,0.2-0.1,0.7,0.2,1.3c0.3,0.7,0.3,1.3,0,1.8c-0.3,0.6-1,1.6-2.2,3.1c-4.4,5.2-7.6,11.7-9.4,19.3
		c-1.8,7.6-2,14.8-0.6,21.4c0.4,1.9,0.8,3.3,1.1,4.2c3.3,8.7,8.4,14,15.3,16.1c3.6,1.1,7.2,1.2,10.9,0.4c6.2-1.3,11.9-5.5,17.3-12.5
		c3.5-4.9,5.9-10,7.4-15.4c1.5-5.4,1.7-10.4,0.7-15c-0.2-0.8-0.6-2-1.2-3.6c-2.3-5.9-6.6-10.9-13-15.1
		C2025.5,1192.9,2018.8,1190.6,2011.7,1190.1z"/>
	<path class="st10" d="M2092.8,1175.1c0.8-1.5,2-1.6,3.6-0.6c0.6,0.4,1.2,1.9,1.7,4.3c0.1,0.4,0.3,1.4,0.5,3c0.3,1.6,0.5,2.9,0.8,4
		c4.8,26,3,41-5.6,45.1c-1.2,0.5-2.1,0.9-2.7,1c-3.5,0.7-6.8-0.2-10.1-2.9c-3.3-2.7-6.1-6.8-8.3-12.3c-0.9-2.2-1.6-4.8-2.3-7.8
		c-0.1-0.5-0.3-1.6-0.6-3.3c-0.3-1.6-0.5-2.9-0.7-3.9c-1.3-7.2-1.9-11.2-1.8-11.8c0.2-1,0.6-1.8,1.5-2.2c0.8-0.5,1.6-0.5,2.3-0.1
		c0.5,0.3,0.8,1.2,1.2,2.7c0.1,0.4,0.2,0.9,0.2,1.3c0,0.5,0.1,1.2,0.3,2.2c0.1,1,0.3,1.9,0.5,2.7c0.6,4.1,1.1,6.9,1.4,8.4
		c1.9,8.8,4.9,15.2,9,19.2c2.3,2.2,4.5,3.1,6.6,2.6c2-0.4,3.6-2.1,4.9-4.9c2.7-5,2.4-16.3-0.7-33.9
		C2093.1,1180,2092.5,1175.8,2092.8,1175.1z"/>
</g>
<g>
	<path class="st10" d="M-7.3,1202c0.4-0.9,1.2-1.5,2.1-1.7c1-0.2,2.5-0.3,4.6-0.1c6.9,0.1,16.6-0.6,29.2-2
		c6.8-0.8,20.7-3.4,41.7-7.9c20.9-4.5,31.7-6.4,32.5-5.7c1.2,1.2,1.2,2.4,0.1,3.8c-0.4,0.7-9.8,3-28.2,6.9l-27.6,6l1.7,1.8
		c1.1,1.3,1.9,3.6,2.6,6.7c0.7,3.1,1.5,10.3,2.4,21.7s1.4,21.2,1.5,29.5c0.7,26.1,1.5,43.3,2.2,51.5c0.2,2.8-0.4,4.3-1.7,4.6
		c-0.5,0.1-0.9,0.1-1.2,0c-0.7-0.3-1.2-1.3-1.6-3.1c-0.7-3.4-1.6-18.1-2.5-44c-0.3-9.6-1.2-26.6-2.7-51c-0.2-3.8-0.4-6.4-0.7-7.7
		c-0.5-2.4-1.8-4.3-3.7-5.6c-1.5-1.1-2.4-2-2.5-2.7c-0.1-0.5-3.3-0.4-9.4,0.3c-9.3,1.3-17.8,2.1-25.6,2.3c-7.8,0.3-12.1-0.1-12.9-1
		C-7.6,1203.8-7.8,1202.9-7.3,1202z"/>
	<path class="st10" d="M130.8,1207.1c0.6-1,1-1.5,1.2-1.5c1.7-0.4,3.6,0.6,5.7,3c3.5,3.8,7.4,13.2,11.5,28.2c1,3.5,1.8,6,2.4,7.6
		c0.3,0.9,0.6,1.4,0.7,1.3c0.1-0.2,0.2-1.3,0.4-3.5c1-12,6.5-19.1,16.3-21.2c3.2-0.7,6.1-0.7,8.5,0.1c9.9,2.8,18.1,10.5,24.6,23
		c1.8,3.5,3.1,7.2,4,11.3c2.2,10.2,1.8,15.6-1.3,16.3c-1.4,0.3-2.2-0.2-2.5-1.6c-0.3-1.4-0.4-3-0.3-4.8c0-3.1-0.3-6-0.9-8.6
		c-1.3-6.1-4.1-12.2-8.4-18.2c-2-2.8-4.7-5.4-8.1-7.8c-5.2-3.7-10.3-5-15.2-4c-4.7,1-7.9,3.6-9.7,7.6c-1.8,4.1-2.5,10.9-2.3,20.5
		c0.1,3.3-0.3,5.1-0.9,5.5c-0.5,0.5-0.5,2.2,0.1,4.9l1.5,7.1l1.1,5.3c0.9,3.9,1.2,6.3,1.2,7.2c-0.2,0.9-0.8,1.5-1.9,1.7
		c-1.1,0.2-1.8,0-2.4-0.8c-0.5-0.5-1.8-5.6-3.9-15.4c-4-18.7-7.9-33.2-11.5-43.4c-2.2-5.9-3.7-9.7-4.5-11.3
		c-0.8-1.6-1.9-2.9-3.3-3.9C130.8,1210.3,130,1208.7,130.8,1207.1z"/>
	<path class="st10" d="M245,1170.3c1.5-1.3,3.3-2.2,5.2-2.6c1.2-0.3,2.5-0.3,3.6-0.1c3.2,0.9,6.2,3.2,9.1,7
		c3.6,4.9,6.7,10.7,9.1,17.5c2.4,6.8,5.2,17.2,8.2,31.2l2.4,11.2l2.5,3.3c5.7,7.7,12.8,11.4,21.4,11.2c3.2-0.1,5,0.5,5.2,1.9
		c0.1,0.3,0.1,0.8,0,1.7c-0.2,1-0.9,1.7-2.3,2c-4.2,0.9-9,0.2-14.3-2.1c-5.3-2.3-9.6-5.6-12.9-9.7l-2.7-3.7l-1.4,3.3
		c-2.4,5.5-5.8,10.1-10.2,13.9c-4.4,3.8-9.1,6.2-14.1,7.3c-4.6,1-9.1,0.7-13.6-0.9c-1.8-0.6-3.9-1.9-6.2-3.8
		c-2.3-1.9-4.2-3.8-5.5-5.6c-1.7-2.6-3-5.8-3.8-9.4c-1.5-7.1-1.3-15.2,0.7-24.5c1.8-8.2,4.2-13.9,7.2-17.1c1.1-1.1,1.4-1.8,0.9-2.1
		c-0.5-0.3-0.8-0.9-1-1.7c-0.2-0.8-0.1-1.5,0.3-2c1.4-2,5-3.6,11-4.9c7.7-1.7,14.9,0.2,21.7,5.5l3.3,2.5l-1.2-3.8
		c-3.4-10.5-7.3-17.4-11.6-20.7c-1.8-1.3-3.6-1.8-5.2-1.4c-1.5,0.3-2.8,1.1-4,2.3c-2,2.3-3.6,2.6-5,0.9c-0.2-0.1-0.3-0.4-0.4-0.8
		C241.1,1174.2,242.3,1172.3,245,1170.3z M255.1,1197.3c-2.6-0.7-5.8-0.7-9.7,0c-0.7,0.2-1.5,0.3-2.3,0.4c-0.8,0.1-1.3,0.2-1.4,0.2
		c-1,0.2-1.5,0.5-1.4,0.7l0.8,0.9c0.6,0.6,1,1.2,1.2,1.9c0.2,0.8,0,1.6-0.6,2.4c-0.6,0.8-1.3,1.1-1.9,0.9l-0.6,0.1
		c-2.2,0.5-4.2,2.6-6,6.4c-1.6,3.9-2.8,8.8-3.6,14.7c-0.8,5.9-0.8,10.8-0.1,14.6l0.5,2.4c1,4.8,3.2,8.4,6.6,10.9
		c4.9,3.8,10.3,5,16.1,3.8c5.1-1.1,9.9-4,14.6-8.7c5.4-5.6,8.2-12,8.4-19.3c0.1-1.9-0.2-4.7-1.1-8.5c-0.5-2.3-0.9-3.6-1.2-3.8
		c-0.3-0.2-0.8-1.5-1.6-3.9c-0.9-3.6-3-7-6.1-10C262.4,1200.5,258.9,1198.5,255.1,1197.3z"/>
	<path class="st10" d="M344.5,1167.1c1.5-1,3.7-1.9,6.8-2.5c3.5-0.7,6.5-0.9,9.2-0.5c8.1,1.4,15.5,6.7,22.4,15.8
		c7,9.7,11.9,21.1,14.7,34.1c0.7,3.4,1.3,6.8,1.6,10.1c0.3,5.2-0.2,7.9-1.5,8.2c-0.5,0.1-1.2-0.2-2.1-0.8c-0.6-0.4-1-2.1-1.3-5.1
		c-0.2-2.5-0.7-5.8-1.6-9.9c-1.3-6.1-2.8-11.2-4.5-15.2c-4.6-11.2-10-19.6-16.2-25.3c-6.2-5.6-12.4-7.8-18.5-6.4
		c-0.7,0.2-1.8,0.5-3.2,1.1c-6.2,2.6-10.5,7.9-13.1,15.9c-2.6,8-3.7,19.3-3.2,33.9c0,4.1,0.8,10.2,2.4,18.2l2.2,12.1l-1.7,0.4
		l-0.6,0.1c-1.1,0.2-1.9-0.1-2.5-1.1c-0.5-1-1.2-3.2-2.1-6.7l-0.6-2.9c-2.6-11.9-3.3-24.4-2.3-37.5
		C330.4,1185.2,335.6,1173.2,344.5,1167.1z"/>
	<path class="st10" d="M405.1,1146.6c0.3-0.6,0.8-1,1.5-1.2c0.6-0.1,2.2,0.8,4.8,2.7c2.6,1.9,4.4,3.6,5.5,5.1
		c5.2,7.1,8.9,16.1,11.3,27l1.3,6.1l1-2.8c2.1-5.9,5.3-12.3,9.8-19.4c4.9-7.7,7.7-11.7,8.3-11.8c0.4-0.1,0.7-0.1,1,0
		c1,0.2,1.5,0.9,1.8,2c0.2,1-1.7,4.9-5.8,11.7c-6.8,10.9-10.1,17-9.8,18.5c0.1,0.5,0.9,1,2.4,1.4c1.4,0.5,3.3,1.6,5.6,3.3
		c2.4,1.6,4.3,3.3,5.9,5.1c3.1,3.5,8.2,10.6,15.5,21.4c1.8,2.6,2.2,4.4,1.2,5.5c-0.7,0.4-1.1,0.7-1.2,0.7c-1.2,0.3-3.2-1.7-5.9-6
		c-7.8-12-13.9-19.6-18.5-22.9c-2.3-1.6-4.1-2.3-5.5-2c-0.6,0.1-1.1,0.5-1.5,1c-0.4,0.7-0.9,1.1-1.7,1.2c-0.6,0.1-0.7,1.4-0.4,3.7
		c2.3,20.1,2.9,31.3,1.8,33.5c-0.3,0.8-1,1.2-2.1,1.1c-1.4,0.2-2.3-0.6-2.7-2.4c-0.1-0.7-0.2-1.8-0.2-3.4c0-1.6,0-2.6,0-3
		c0-11.4-1.5-24.1-4.6-38.2c-1.9-8.7-3.9-15.4-6.1-20c-3-6.2-6.3-10.4-9.9-12.6c-1.8-1.3-2.9-2.5-3.1-3.6
		C404.6,1147.8,404.8,1147.2,405.1,1146.6z"/>
	<path class="st10" d="M558.9,1099.5c0.7-0.7,1.6-0.8,2.7-0.2c0.8,0.5,1.2,1.2,1.4,1.8c0.1,0.7,0,2.3-0.5,5
		c-2.1,9.5-4.3,32.5-6.6,68.8c-1.5,21.2-2.8,32.9-3.8,35.2c-1.1,1.9-2.4,2.3-3.8,1c-0.5-0.5-0.6-1.7-0.4-3.7
		c1.1-9.6,2.3-21.9,3.3-36.7l1.1-15.6l-7.2-9.1c-8.7-10.9-15.9-18.8-21.6-23.7c-2.2-1.8-3.7-2.5-4.4-2.3c-0.1,0-0.3,0.1-0.6,0.1
		l-0.3,0.3c-1.4,0.3-2.2-0.5-2.7-2.4c-0.3-1.2-0.2-2.4,0.2-3.7c0.4-1.2,0.9-1.9,1.7-2.1l0.6-0.1c0.9,0.1,3.2,1.6,6.9,4.5
		c3.7,2.9,6.7,5.7,9.2,8.2c3,3.1,8.1,9.2,15.4,18.4l3.1,3.8l0.1-2.4c0.6-8.8,1.6-18.3,3-28.6
		C557.1,1105.9,558.2,1100.3,558.9,1099.5z"/>
	<path class="st10" d="M605.1,1107.6c1.6-0.8,3.4-1.4,5.4-1.8c4.9-1.1,10.6-0.9,16.9,0.4c6.3,1.3,12,3.7,17,7.2
		c8.2,5.8,13.2,12.8,15,21.1c0.6,2.6,0.8,5,0.8,7.3c0,8-2.1,15.8-6.3,23.4c-4.2,7.7-9.6,13.2-16.1,16.6c-1.9,1-4.4,1.8-7.6,2.5
		c-3.2,0.7-5.7,0.9-7.4,0.7c-6.5-0.6-12-3.2-16.6-7.8c-4.6-4.6-7.7-10.5-9.3-17.7l-0.4-2c-2.2-13.7,0.6-26.8,8.4-39.3l3.8-5.9
		l-2.5,1.2c-2.7,1.2-4.3,0.7-4.7-1.3C601.1,1110.7,602.3,1109.2,605.1,1107.6z M620.4,1110.5c-2.2-0.2-4-0.2-5.2,0.1
		c-0.7,0.2-1.2,0.4-1.3,0.6c-0.1,0.2-0.1,0.7,0.2,1.3c0.3,0.7,0.3,1.3,0,1.8c-0.3,0.6-1,1.6-2.2,3.1c-4.4,5.2-7.6,11.7-9.4,19.3
		c-1.8,7.6-2,14.8-0.6,21.4c0.4,1.9,0.8,3.3,1.1,4.2c3.3,8.7,8.4,14,15.3,16.1c3.6,1.1,7.2,1.2,10.9,0.4c6.2-1.3,11.9-5.5,17.3-12.5
		c3.5-4.9,5.9-10,7.4-15.4c1.5-5.4,1.7-10.4,0.7-15c-0.2-0.8-0.6-2-1.2-3.6c-2.3-5.9-6.6-10.9-13-15.1
		C634.2,1113.3,627.5,1110.9,620.4,1110.5z"/>
	<path class="st10" d="M701.5,1095.5c0.8-1.5,2-1.6,3.6-0.6c0.6,0.4,1.2,1.9,1.7,4.3c0.1,0.4,0.3,1.4,0.5,3c0.3,1.6,0.5,2.9,0.8,4
		c4.8,26,3,41-5.6,45.1c-1.2,0.5-2.1,0.9-2.7,1c-3.5,0.7-6.8-0.2-10.1-2.9c-3.3-2.7-6.1-6.8-8.3-12.3c-0.9-2.2-1.6-4.8-2.3-7.8
		c-0.1-0.5-0.3-1.6-0.6-3.3c-0.3-1.6-0.5-2.9-0.7-3.9c-1.3-7.2-1.9-11.2-1.8-11.8c0.2-1,0.6-1.8,1.5-2.2c0.8-0.5,1.6-0.5,2.3-0.1
		c0.5,0.3,0.8,1.2,1.2,2.7c0.1,0.4,0.2,0.9,0.2,1.3c0,0.5,0.1,1.2,0.3,2.2c0.1,1,0.3,1.9,0.5,2.7c0.6,4.1,1.1,6.9,1.4,8.4
		c1.9,8.8,4.9,15.2,9,19.2c2.3,2.2,4.5,3.1,6.6,2.6c2-0.4,3.6-2.1,4.9-4.9c2.7-5,2.4-16.3-0.7-34
		C701.8,1100.4,701.2,1096.2,701.5,1095.5z"/>
</g>
</svg>
